<svg xmlns="http://www.w3.org/2000/svg" width="202.836" height="128.48" viewBox="0 0 202.836 128.48">
  <path id="Union_2" data-name="Union 2" d="M73.91,127.886,88.307,95.6c-.757.054-1.535.084-2.345.084-16.284,0-24.862-11.29-24.862-23.558,0-13.355,10.1-23.559,24.753-23.559,8.482,0,15.327,3.492,19.091,9.716L130.929,0l1.341.6L105.79,59.833l-4.476,10.011L90.9,93.132l-1.032,2.306L75.1,128.48Zm15.562-34.9L99.788,69.844H76.408C76.408,83,80.994,91.649,89.472,92.984ZM76.517,68.976H93.454c-.109-5.1-.435-19.76-7.925-19.76C79.232,49.216,76.735,60.29,76.517,68.976Zm53.91,40.067v-1.272h1.163v1.272Zm-8.991,0V99.034h2.53c3.259,0,4.977,1.69,4.977,4.991s-1.758,5.018-4.977,5.018Zm.959-.865h1.719c2.475,0,3.868-1.259,3.868-4.153,0-2.827-1.406-4.1-3.9-4.1h-1.692Zm-6.779.865V99.926h-3.233v-.893h7.426v.893h-3.233v9.117Zm-8.677,0V99.034h.96v9.13h4.9v.879ZM19,91.99,7.383,95.573l-.324-.108V33.04c0-5.43-1.2-8.253-7.058-8.253v-.651l21.821-2.172V55.838A19.162,19.162,0,0,1,36.8,48.565c12.7,0,19.108,11.4,19.108,23.125,0,13.135-8.144,23.992-24.1,23.992C25.623,95.682,21.931,94.162,19,91.99Zm2.821-35.175V88.844A7.378,7.378,0,0,0,29.2,94.921c8.576,0,11.183-12.158,11.183-22.255,0-10.964-2.932-20.086-10.423-20.086C26.49,52.58,23.884,54.428,21.821,56.816ZM135.158,89.7c0-3.152,2.049-5.137,4.57-5.137a4.07,4.07,0,0,1,3.547,1.874l-.71.551a3.079,3.079,0,0,0-2.852-1.575c-2.129,0-3.578,1.764-3.578,4.287s1.371,4.287,3.515,4.287a3.485,3.485,0,0,0,3.01-1.48V90.538h-2.774v-.787h3.7v4.964h-.677l-.126-1.262a4.018,4.018,0,0,1-3.216,1.4C136.971,94.857,135.158,92.855,135.158,89.7Zm-11.5,3.5.645-.583a3.317,3.317,0,0,0,2.585,1.435c1.578,0,2.413-.837,2.413-1.94a1.963,1.963,0,0,0-1.451-1.733c-.489-.222-1.813-.726-2.126-.867a2.576,2.576,0,0,1-1.639-2.364c0-1.608,1.338-2.6,3.072-2.6a3.617,3.617,0,0,1,2.933,1.434l-.583.615a3.053,3.053,0,0,0-2.35-1.259c-1.261,0-2.176.63-2.176,1.734a1.965,1.965,0,0,0,1.45,1.732c.49.221,1.813.726,2.129.868a2.6,2.6,0,0,1,1.655,2.364c0,1.592-1.259,2.822-3.357,2.822A3.811,3.811,0,0,1,123.656,93.2Zm34.872-3.483c0-2.963,1.844-5.155,4.684-5.155s4.7,2.192,4.7,5.138c0,2.964-1.845,5.154-4.683,5.154S158.527,92.666,158.527,89.719Zm.978-.017c0,2.523,1.465,4.3,3.705,4.3s3.72-1.779,3.72-4.3-1.468-4.3-3.706-4.3C160.971,85.4,159.506,87.18,159.506,89.7Zm27.558,0c0-3.153,2.049-5.138,4.572-5.138a3.9,3.9,0,0,1,3.563,1.955l-.71.551a3.118,3.118,0,0,0-2.87-1.657c-2.126,0-3.577,1.767-3.577,4.289s1.372,4.287,3.515,4.287a3.507,3.507,0,0,0,3.043-1.717l.662.552a4.15,4.15,0,0,1-3.705,2.031C188.877,94.856,187.064,92.856,187.064,89.7Zm-80.327,5.014V84.705h3.153a4.383,4.383,0,0,1,3.309,1.262,5.648,5.648,0,0,1,0,7.486,4.381,4.381,0,0,1-3.309,1.262Zm.947-.79h2.206a3.511,3.511,0,0,0,2.6-1.023,5,5,0,0,0,0-6.384,3.509,3.509,0,0,0-2.6-1.024h-2.206Zm89.24.789V84.705h5.754v.773H197.87v3.482h4.492v.79H197.87v4.16h4.966v.8Zm-12.859,0V84.7h.948V94.715Zm-7.048,0V84.705h5.438v.773h-4.493V89.2h4.1v.787h-4.1v4.73Zm-7.049,0V84.705H175.4v.773h-4.492V89.2h4.1v.787h-4.1v4.73Zm-17.3,0-5.832-8.827v8.827h-.866V84.705H147.1l5.564,8.432V84.705h.866V94.715Zm-20.51,0V84.7h.947V94.715Zm-15.508,0V84.705H122.4v.773h-4.809v3.482h4.492v.79h-4.492v4.161h4.966v.8Zm51.766-19.34c0-3.152,2.049-5.139,4.571-5.139a4.068,4.068,0,0,1,3.546,1.876l-.71.551a3.081,3.081,0,0,0-2.852-1.576c-2.128,0-3.578,1.765-3.578,4.287s1.37,4.287,3.514,4.287a3.488,3.488,0,0,0,3.011-1.48V76.21h-2.775v-.787h3.7v4.963h-.677l-.126-1.262a4.015,4.015,0,0,1-3.215,1.4C170.226,80.529,168.413,78.527,168.413,75.374Zm-36.823.017c0-2.964,1.844-5.155,4.684-5.155s4.7,2.191,4.7,5.139c0,2.964-1.845,5.154-4.682,5.154S131.59,78.339,131.59,75.391Zm.978-.016c0,2.523,1.465,4.3,3.705,4.3s3.72-1.779,3.72-4.3-1.468-4.3-3.705-4.3C134.033,71.072,132.568,72.853,132.568,75.375Zm-10.14,0c0-3.153,2.049-5.139,4.571-5.139a3.9,3.9,0,0,1,3.563,1.955l-.709.551a3.119,3.119,0,0,0-2.87-1.655c-2.128,0-3.579,1.767-3.579,4.288s1.373,4.287,3.515,4.287a3.506,3.506,0,0,0,3.043-1.718l.662.553a4.151,4.151,0,0,1-3.705,2.031C124.241,80.528,122.428,78.527,122.428,75.375Zm32.811,5.013V70.377h.947V80.388Zm10.247,0-5.831-8.827v8.827h-.866V70.378h1.134l5.563,8.432V70.378h.866V80.387Zm-13.671,0-.285-8.985-3.387,8.985h-.79L143.967,71.4l-.27,8.985h-.913l.392-10.009h1.341l3.263,8.747,3.279-8.747h1.34l.394,10.009Zm-36.475,0V70.378h5.754v.773h-4.809v3.482h4.492v.79h-4.492v4.161h4.966v.8Zm-8.6,0V70.378h2.679a4.188,4.188,0,0,1,2.27.441,2.238,2.238,0,0,1,1.008,1.924,2.265,2.265,0,0,1-1.78,2.206v.031a2.54,2.54,0,0,1,2.443,2.571,2.613,2.613,0,0,1-1.1,2.206,4.47,4.47,0,0,1-2.6.629Zm.945-.787h2.128a3.134,3.134,0,0,0,1.734-.394,2.059,2.059,0,0,0,0-3.312,3.133,3.133,0,0,0-1.734-.394h-2.128Zm0-4.889h1.608a3.222,3.222,0,0,0,1.655-.315,1.712,1.712,0,0,0,.789-1.5,1.608,1.608,0,0,0-.772-1.5,3.747,3.747,0,0,0-1.654-.236h-1.625Z"/>
</svg>
