<svg id="Layer_1" data-name="Layer 1" xmlns="http://www.w3.org/2000/svg" xmlns:xlink="http://www.w3.org/1999/xlink" viewBox="0 0 1279.45 254.85"><defs><style>.cls-1{fill:none;}.cls-2{clip-path:url(#clip-path);}.cls-3{fill:#333;}</style><clipPath id="clip-path" transform="translate(-89.62 -77.29)"><rect class="cls-1" width="1440" height="414"/></clipPath></defs><title>Becoming_logos_desktop</title><g class="cls-2"><path class="cls-3" d="M761.38,102.21a30.56,30.56,0,0,0-16.82-3,34.28,34.28,0,0,0-12.44,4.31c-8.75,5.12-20.5,12.45-20.5,12.45-9.81,6.19-13.37,1.28-13.37,1.28-11.82-13.12-46,21-46,21,7.69-11.3,23.94-22.87,23.94-22.87A36,36,0,0,1,687.06,110h.06a11.74,11.74,0,0,1,11.37,2.56s3.75,4.37,9.94.67c0,0,21.81-13,25.06-14.4a25.88,25.88,0,0,1,12.57-2.29c-3.06-1.61-9.18-3-9.18-3-7.88-1.21-14.63,2.36-16.94,3.7s-9.19,5.66-9.19,5.66a33,33,0,0,1-11,5.31,8.42,8.42,0,0,1-6.5-1.14c-14.5-10.1-47.5,17-47.5,17a93.08,93.08,0,0,1,14.31-13.39H635.62l22.5,44.62c14.62-24.23,31.44-34.39,31.44-34.39,8.56-3.63,9.5,2.22,9.5,2.22,3,10.3,18.19-.94,18.19-.94,6-4,15.94-10,15.94-10,18.63-10.44,28.19-9.9,28.19-9.9m-77.2,58.34-4.81-12h-4.44c2.19,4.31,5.69,12.52,7.25,15.94h2.19s4.56-10.56,7.25-15.81h-2.25Zm33.76-12v2s3.31-.07,4.25-.07a13.78,13.78,0,0,1,.06,1.82V158c0,2.55-.06,4.3-.19,6.26h3.81c-.12-2-.18-3.77-.18-6.26v-5.66a12.17,12.17,0,0,1,.06-1.81c.94,0,4.12.06,4.12.06v-2c-2,.06-9.81.06-11.93,0m-10.32-12.25a8.51,8.51,0,0,1,2.25.27l.19-1.28a12.13,12.13,0,0,0-2.25-.27c-3.44,0-5.06,1.89-5.06,4.51,0,2.22,1.25,4,4.68,4a8.81,8.81,0,0,0,2.75-.4L710,142a7.49,7.49,0,0,1-2.19.4c-2.25,0-3.25-1.15-3.25-3.1a2.72,2.72,0,0,1,3.06-3M701.81,157c0,4.3,3.19,7.6,8.56,7.6a11.33,11.33,0,0,0,4.19-.74c.12-.07.44-.2.44-.2.31-1.15.5-1.82.5-1.82l-.19-.27a6.25,6.25,0,0,1-4.19,1.62c-2.69,0-5.5-1.82-5.5-6.53s2.81-6.93,5.31-6.93a4.83,4.83,0,0,1,4,2h.19s.19-1.08.5-2.29a10.33,10.33,0,0,0-4.56-1.08c-4.88-.06-9.25,2.36-9.25,8.62m-3.56-8.41h-3.82c.13,2,.19,3.76.19,6.25v3.1c0,2.56-.06,4.31-.19,6.26h3.82c-.13-2-.19-3.77-.19-6.26v-3.1c0-2.49.06-4.23.19-6.25Zm41.81-.27c-5.37,0-8.94,3.63-8.94,8.14,0,5.65,3.94,8.14,8.82,8.14,5.18,0,8.87-3.63,8.87-8.14.07-5.52-3.81-8.14-8.75-8.14Zm-.25,14.87c-2.62,0-4.87-1.68-4.87-6.53,0-3.9,1.87-7.06,5-7.06S745,152,745,155.91c.06,5-2.38,7.27-5.18,7.27Zm23.07-10.84a3.55,3.55,0,0,0-1.5-3c-.82-.54-1.69-.81-4-.81-1.56,0-4.81.07-5.31,0,.12,2,.18,3.77.18,6.26v3.1c0,2.55-.06,4.3-.18,6.26h3.81c-.13-2-.19-3.77-.19-6.26v-.82h.19l4.12,7.2h4.19c-1.69-2.55-3.44-5.18-4.94-7.74,2.38-.53,3.63-1.94,3.63-4.17m-6.69,3.77a1.4,1.4,0,0,1-.5-.06c0-2.09,0-4.1.06-6.2,2.5,0,3.63.27,3.63,3,0,2.15-1.13,3.29-3.19,3.29m27.19-7.6h-1.75c-2,5.18-5.5,13.26-6.63,15.75h2.25a43.63,43.63,0,0,1,1.57-4.64c.81,0,1.62-.07,2.43-.07,1,0,2,0,3,.07.57,1.54,1.13,3.1,1.63,4.64h4c-1.81-3.71-4.56-10.57-6.5-15.75Zm-3.94,9.76c.69-1.82,1.38-3.63,2.19-5.38.75,1.75,1.37,3.56,2.06,5.38Zm-7.56-9.69h-3.81c.12,2,.18,3.77.18,6.26v3.1c0,2.55-.06,4.3-.18,6.26h3.81c-.13-2-.19-3.77-.19-6.26v-3.1c0-2.5,0-4.24.19-6.26Zm-58.26-5h1.69v-8.41h-1.69Zm8.94,0v-7.27h2.81v-1.14h-7.31v1.14h2.81v7.27Zm9.56,0v-3l3.25-5.38h-1.75l-1.43,2.49c-.32.53-.63,1.07-.88,1.54h-.06a7.63,7.63,0,0,0-.75-1.41l-1.5-2.62h-1.81l3.19,5.38v3Zm15.26-8.55c-2.69,0-4.94,1.62-4.94,4.44,0,2.56,1.5,4.24,4.62,4.24,2.75,0,4.94-1.61,4.94-4.44s-1.87-4.24-4.62-4.24m-.19,7.47c-2,0-3-1.28-3-3.16a2.92,2.92,0,0,1,2.73-3.1h.27c1.94,0,3,1.14,3,3.16a2.93,2.93,0,0,1-2.72,3.1ZM760,136.33v-1.14h-5.37v8.41h1.69v-3.7h3.5v-1.08h-3.5v-2.49Z" transform="translate(-89.62 -77.29)"/><path class="cls-3" d="M371.62,97.29h52.22v34.47a29.74,29.74,0,0,1-8.51,20.88,31.57,31.57,0,0,1-11.75,8.06,15.07,15.07,0,0,1-6.66,1.17,18,18,0,0,1-6.39-1.78c-8.17-4-14-10.08-17.18-18.64a25,25,0,0,1-1.62-8.85c-.11-11.58-.11-23.23-.11-34.81ZM373.07,120h49.31V98.69H373.07Zm25.19,21a11.26,11.26,0,0,1,1.28-.56,6.19,6.19,0,0,1,4.48.28c1.29.56,2.52,1.29,3.75,2a5.83,5.83,0,0,0,3.86.84c.34,0,.45-.17.45-.56,0-.95.06-2,.06-2.91.05-1.79.05-3.52.11-5.31.06-2,.06-4,.11-6v-2.69a6.15,6.15,0,0,1-5.71-1,8.42,8.42,0,0,0-3-1.4,5.24,5.24,0,0,0-5,1.12,1,1,0,0,0-.39.84v14.89a1.21,1.21,0,0,1,.06.5m-1,0c0-.11.06-.16.06-.22V125.39a.94.94,0,0,0-.28-.56,4.79,4.79,0,0,0-3.47-1.46,7.53,7.53,0,0,0-4.48,1.51,6.12,6.12,0,0,1-3.86,1.4,17.19,17.19,0,0,1-1.9-.17v4.37c0,1.79.05,3.58.11,5.37.05,2.35.05,4.76.11,7.11,0,.33.17.44.45.5a4.83,4.83,0,0,0,3.19-.45c.73-.39,1.4-.84,2.13-1.23a12,12,0,0,1,4.42-1.63,5.49,5.49,0,0,1,3.52.9M413.37,127c-.06.73-.11,1.35-.11,2-.06,1.62-.06,3.24-.11,4.87-.06,1.84-.06,3.64-.12,5.48v4.14a.73.73,0,0,1-.56.79,4.85,4.85,0,0,1-3.63-.06,22.23,22.23,0,0,1-2.8-1.52,9.44,9.44,0,0,0-5.15-1.56,3.66,3.66,0,0,0-2.63,1.18.67.67,0,0,0-.17.78,4.85,4.85,0,0,0,2.46,2.69,15,15,0,0,0,5.82,1.34c1.4.06,2.8.06,4.15,0,1.51-.06,3-.22,4.59-.39.11,0,.28-.23.28-.34.05-.56.05-1.17.11-1.73.11-1.9.17-3.81.28-5.71l.33-7.22c.06-.79.12-1.63.17-2.41a.79.79,0,0,0-.22-.5c-.73-.56-1.46-1.06-2.18-1.62a2,2,0,0,1-.51-.23Zm-31.06.12c-.06-.06-.12-.06-.17-.12a3.4,3.4,0,0,0-.45.28c-.73.5-1.45,1-2.13,1.57a.77.77,0,0,0-.22.45c.06.78.11,1.62.17,2.41.11,2.68.28,5.31.39,8,.06,1.73.17,3.52.22,5.26,0,.61.06,1.17.12,1.84,1.9.17,3.8.34,5.7.4a37.83,37.83,0,0,0,4.26-.17,13.49,13.49,0,0,0,4.2-1,4.93,4.93,0,0,0,3.08-3c.11-.34.11-.67-.17-.84a6.46,6.46,0,0,0-1.57-.9,5.93,5.93,0,0,0-4.48.5,34.76,34.76,0,0,0-3.24,1.86,5.89,5.89,0,0,1-4.93.56.69.69,0,0,1-.5-.73c0-1.68,0-3.36,0-5-.06-2.41-.06-4.76-.12-7.16-.11-1.4-.11-2.86-.11-4.26Zm33.07,23.4H380a6.17,6.17,0,0,0,.78.84,1.41,1.41,0,0,0,.56.28H414a.61.61,0,0,0,.45-.12,7.07,7.07,0,0,0,.89-1Zm-7,6.21c0-.06,0-.06-.05-.11H387.06a11.11,11.11,0,0,0,1.4,1,1.7,1.7,0,0,0,.73.17h17.07a1.14,1.14,0,0,0,.45-.06,12.14,12.14,0,0,0,1.68-1Zm-7.26-9.58a8,8,0,0,1-3.3-2.63,7.66,7.66,0,0,1-3.3,2.63,3.44,3.44,0,0,0,3.19,1.51,3.57,3.57,0,0,0,3.41-1.51M373.07,127c.06,0,.06,0,.11,0h7.06c.39,0,1.17-.78,1.28-1.17H374c-1.06,0-1.06,0-.95,1.06-.05,0,0,.06,0,.06m49.31-1.12H414a1.91,1.91,0,0,0,1.57,1.17h6.77ZM378.5,132h-5.37v1.07h5.43c0-.34-.06-.68-.06-1.07m43.88,0h-5.26c-.06.39-.06.73-.12,1.07h5.38Zm-43.6,6.16h-5a10.78,10.78,0,0,1,.28,1.12h4.81c-.05-.39-.05-.73-.11-1.12m38,0c-.06.39-.06.73-.11,1.12h4.7c.11-.39.17-.73.28-1.12ZM376,144.3a6.78,6.78,0,0,0,.45.84c.05.11.17.34.28.34h2.46a11.76,11.76,0,0,1-.11-1.18Zm40.41,1.17h2.3a.43.43,0,0,0,.28-.11c.16-.33.33-.67.56-1.06h-3a9.24,9.24,0,0,0-.11,1.18Z" transform="translate(-89.62 -77.29)"/><path class="cls-3" d="M436,105.29h3.41v.56c0,3.41-.05,6.83,0,10.24a9.93,9.93,0,0,0,.45,2.86,3.18,3.18,0,0,0,3.25,2.46,3.31,3.31,0,0,0,3.52-2.46,12.34,12.34,0,0,0,.45-3.19c.06-3.3,0-6.6,0-9.91v-.56h3.41v10.52a11,11,0,0,1-.67,4.09A6.25,6.25,0,0,1,444.6,124a10.5,10.5,0,0,1-3.75-.11,5.9,5.9,0,0,1-4.59-4.87,13.08,13.08,0,0,1-.34-2.86c-.05-3.52,0-7,0-10.52a1.27,1.27,0,0,0,.12-.39" transform="translate(-89.62 -77.29)"/><path class="cls-3" d="M480.87,132c-.5,1.46-1,2.86-1.46,4.31-1.62,4.65-3.19,9.24-4.81,13.88a.57.57,0,0,1-.62.45c-1.17-.06-2.29,0-3.47,0-2-6.21-4-12.37-6-18.58h3.75L472.64,147l.17-.67c1.12-3.75,2.29-7.5,3.41-11.25l.84-2.69a.39.39,0,0,1,.4-.35l.1,0c1.13-.06,2.19-.06,3.31-.06" transform="translate(-89.62 -77.29)"/><path class="cls-3" d="M448.69,144.58a6.39,6.39,0,0,1-2.52,4.92,7.06,7.06,0,0,1-9.91-1.28c-.14-.18-.27-.37-.39-.56-1.35-2.47-1.23-6.72,1.23-9a6.75,6.75,0,0,1,5.54-1.73c3.8.34,6.05,2.91,6.05,7.61m-10.19-.67a6.2,6.2,0,0,0,.56,2.68,3.05,3.05,0,0,0,2.68,1.91,2.85,2.85,0,0,0,2.75-1.68,6.09,6.09,0,0,0-.12-5.88,2.89,2.89,0,0,0-5-.11,5.67,5.67,0,0,0-.84,3.08" transform="translate(-89.62 -77.29)"/><path class="cls-3" d="M525,143.24c0,2.74-.62,4.64-2.3,6.1-2.8,2.46-8.34,2.29-10.52-1.63-1.4-2.57-1.23-7.16,1.68-9.4,2.58-2,7.5-2,9.8,1.23a5.76,5.76,0,0,1,1.34,3.7m-10.13.5a5.45,5.45,0,0,0,.56,2.8,3,3,0,0,0,2.8,1.9,2.92,2.92,0,0,0,2.74-1.9,6.37,6.37,0,0,0-.06-5.43,2.72,2.72,0,0,0-2.63-1.74,2.88,2.88,0,0,0-2.74,1.74,5.36,5.36,0,0,0-.67,2.63Z" transform="translate(-89.62 -77.29)"/><path class="cls-3" d="M544.45,129.92c-.28-1-.5-1.9-.73-2.8.62-.34,1.23-.62,1.85-1a4.93,4.93,0,0,0,2-2.18,1.37,1.37,0,0,0,.05-1.23c-1.56-4-3.19-7.89-4.75-11.87a4.2,4.2,0,0,1-.17-.5c.17,0,.28,0,.45,0H546a.52.52,0,0,1,.61.42v0c1,3.07,1.95,6.1,3,9.12,0,.06.06.06.11.22l.34-1.23c.78-2.74,1.57-5.48,2.35-8.17.11-.28.22-.39.5-.39h3.25a5.91,5.91,0,0,1-.4,1.06c-1.45,3.86-2.91,7.78-4.36,11.59a14.55,14.55,0,0,1-2.41,4.25,7,7,0,0,1-4.47,2.69" transform="translate(-89.62 -77.29)"/><path class="cls-3" d="M457.64,123.87h-3.41V110.44h2.85c.06.61.11,1.29.17,1.85a17.86,17.86,0,0,1,1.62-1.4,4.73,4.73,0,0,1,7.39,3.75c.11,1.51.06,3,.11,4.53v4.65H463v-7.5a6,6,0,0,0-.17-1.4,2.32,2.32,0,0,0-1.79-2,2.59,2.59,0,0,0-2.74,1,3.32,3.32,0,0,0-.62,2.18v7.72Z" transform="translate(-89.62 -77.29)"/><path class="cls-3" d="M551.73,141.78a2.15,2.15,0,0,0-1.82-2.44l-.31,0a6.9,6.9,0,0,0-3.81.78,2.3,2.3,0,0,1-.39.17c-.22-.67-.45-1.34-.61-2a.54.54,0,0,1,.22-.39,18.48,18.48,0,0,1,2.91-.9,9.36,9.36,0,0,1,3.08,0,4.58,4.58,0,0,1,4.08,4.65c.06,1.62.06,3.3.06,4.92,0,1.35.06,2.63.11,4h-3c-.06-.45-.17-.95-.23-1.4L552,149a1.33,1.33,0,0,1-.22.34,5.12,5.12,0,0,1-5.94.9,4.23,4.23,0,0,1-1.34-5.81,4.36,4.36,0,0,1,.89-1,8,8,0,0,1,4-1.56,19.4,19.4,0,0,0,2.41-.06m0,2.3a7.62,7.62,0,0,0-1.17,0,4.63,4.63,0,0,0-2.58.78,2.07,2.07,0,0,0-.47,2.88,2,2,0,0,0,.47.48,2.69,2.69,0,0,0,3.57-1.32,2.55,2.55,0,0,0,.18-.53c.06-.73,0-1.51,0-2.29" transform="translate(-89.62 -77.29)"/><path class="cls-3" d="M493.13,118.05a3.19,3.19,0,0,0,2.46,3.25,9.06,9.06,0,0,0,4.87-.22,2.27,2.27,0,0,1,.5-.17c.17.73.33,1.45.45,2.18,0,.06-.17.22-.28.28a13.05,13.05,0,0,1-4.87.73,7.6,7.6,0,0,1-3.42-.95,5.88,5.88,0,0,1-2.85-4.42,8.31,8.31,0,0,1,.84-5.32,6.33,6.33,0,0,1,8.57-2.59l.5.29a5.79,5.79,0,0,1,2.23,3.92,9.36,9.36,0,0,1,0,3.08h-4.47c-1.57-.06-3-.06-4.53-.06m0-2.4h5.76a2.74,2.74,0,0,0-2.23-3.17l-.18,0a3.14,3.14,0,0,0-3.35,2.89c0,.1,0,.2,0,.3Z" transform="translate(-89.62 -77.29)"/><path class="cls-3" d="M455.23,150.62h-3.41V139.77H450v-2.52h1.73c.06-.79.12-1.51.23-2.24.73-4,4.2-4.7,6.88-4,.11.06.28.23.23.34-.06.78-.12,1.51-.17,2.3-2.86-.45-4,.61-3.64,3.52h2.85v2.58h-2.91Z" transform="translate(-89.62 -77.29)"/><path class="cls-3" d="M483.89,123.87h-3.13c-.12,0-.28-.22-.34-.39l-3.53-9.4c-.44-1.18-.9-2.41-1.34-3.64h3.7c1,3.3,2.07,6.66,3.13,10l.11-.22c.95-3.19,1.9-6.33,2.86-9.52,0-.11.22-.28.33-.28H489c-1.73,4.48-3.47,9-5.15,13.43" transform="translate(-89.62 -77.29)"/><path class="cls-3" d="M509.75,148.11v2.29a.37.37,0,0,1-.23.28,6.37,6.37,0,0,1-4.2-.11,3.42,3.42,0,0,1-2-3.25c-.11-2.12-.06-4.2-.11-6.32v-1.23h-1.9v-2.52h1.84v-2.52c1.12-.34,2.24-.62,3.36-.95v3.41h3.19v2.52h-3.13a.46.46,0,0,0-.06.28c0,2.13,0,4.2.06,6.33a2.58,2.58,0,0,0,.22.9,1.28,1.28,0,0,0,1.12.9Z" transform="translate(-89.62 -77.29)"/><path class="cls-3" d="M532.53,110.38h1.84v-2.07c0-.28.06-.45.39-.5,1-.22,2-.56,3-.84v3.42h3.19V113h-3.13c0,.11-.06.17-.06.28v6.1a3.2,3.2,0,0,0,.17,1,1.31,1.31,0,0,0,1.23,1h1.68v2.3c0,.11-.11.28-.23.28a6.2,6.2,0,0,1-4.14-.11,3.4,3.4,0,0,1-2-2.75,10.24,10.24,0,0,1-.16-1.84V113h-1.85c.06-1,.06-1.73.06-2.63" transform="translate(-89.62 -77.29)"/><path class="cls-3" d="M514.51,120.85c1,.28,1.84.61,2.74.78a5,5,0,0,0,1.85-.11,1.15,1.15,0,0,0,.95-1.12,1.41,1.41,0,0,0-.62-1.4c-.5-.28-1.06-.5-1.57-.78a10,10,0,0,1-2.12-1.12,3.62,3.62,0,0,1-.94-5,3.5,3.5,0,0,1,.94-.94,5.7,5.7,0,0,1,4.31-1c.84.11,1.62.39,2.4.56.28.06.4.23.28.56-.22.67-.39,1.29-.56,2a13.73,13.73,0,0,0-2-.61,4.13,4.13,0,0,0-1.68.05,1.25,1.25,0,0,0-1,1.06,1.1,1.1,0,0,0,.68,1.29c.56.28,1.23.56,1.79.84a11.43,11.43,0,0,1,1.84,1,3.87,3.87,0,0,1-.33,6.5,7,7,0,0,1-4.37.78,17.19,17.19,0,0,1-2.91-.72c-.28-.06-.33-.23-.28-.56a12.9,12.9,0,0,0,.62-1.91" transform="translate(-89.62 -77.29)"/><path class="cls-3" d="M499.84,137.47c-.22.84-.39,1.68-.61,2.52-2.3-.73-4.54-1-6.05,1.4a4.84,4.84,0,0,0,.28,5.32c1.68,2,3.75,1.62,5.88.95.17.84.28,1.68.45,2.63-.9.17-1.79.39-2.69.5a8.3,8.3,0,0,1-3.86-.39,6.08,6.08,0,0,1-4.14-5.54,7.53,7.53,0,0,1,1.17-5.1,6.83,6.83,0,0,1,5-2.91,10.11,10.11,0,0,1,4.09.34,1.08,1.08,0,0,0,.5.28" transform="translate(-89.62 -77.29)"/><path class="cls-3" d="M507.73,110.44c.06.84.11,1.62.17,2.46,1.4-2.35,3-3.24,4.53-2.68v3.13c-.22,0-.39-.06-.56-.06a3.16,3.16,0,0,0-3.55,2.72,2.86,2.86,0,0,0,0,.58v7.22h-3.41V110.44Z" transform="translate(-89.62 -77.29)"/><path class="cls-3" d="M527.83,137.25h2.85c.06.78.11,1.62.17,2.52.95-2,2.29-3.08,4.53-2.86v3.19q-.78,0-1.56,0a3,3,0,0,0-2.52,3c-.06,2-.06,4-.06,6v1.51h-3.41Z" transform="translate(-89.62 -77.29)"/><rect class="cls-3" x="393.27" y="59.96" width="3.41" height="13.38"/><rect class="cls-3" x="436.64" y="33.15" width="3.36" height="13.43"/><rect class="cls-3" x="380.45" y="33.15" width="3.36" height="13.43"/><rect class="cls-3" x="448.06" y="59.96" width="3.36" height="13.38"/><path class="cls-3" d="M484.62,131.26a1.93,1.93,0,1,1,.18,3.86h-.18a1.92,1.92,0,0,1-2-1.84.49.49,0,0,1,0-.12,1.9,1.9,0,0,1,1.87-1.91h.15" transform="translate(-89.62 -77.29)"/><path class="cls-3" d="M527.94,104.45a1.88,1.88,0,0,1,2,1.75.75.75,0,0,1,0,.15,2,2,0,1,1-4.08.29,2.06,2.06,0,0,1,1.89-2.19h.18" transform="translate(-89.62 -77.29)"/><path class="cls-3" d="M539.36,131.26a1.92,1.92,0,0,1,2,1.83v.13a1.88,1.88,0,0,1-1.86,1.9h-.15a1.93,1.93,0,0,1-2-1.84v-.12a1.89,1.89,0,0,1,1.86-1.91h.16" transform="translate(-89.62 -77.29)"/><path class="cls-3" d="M471.69,104.45a1.88,1.88,0,0,1,2,1.75.75.75,0,0,1,0,.15,1.92,1.92,0,0,1-1.89,2h-.12a1.88,1.88,0,0,1-2-1.8v-.16a1.83,1.83,0,0,1,1.77-1.9,1.21,1.21,0,0,1,.19,0" transform="translate(-89.62 -77.29)"/><path class="cls-3" d="M387.34,109.66c1.18.39,2.19.78,3.25,1.11a8.68,8.68,0,0,1-4.64.62,13.32,13.32,0,0,1-3.59-.78,4.19,4.19,0,0,1-2-1.46c-.56-.84-.28-1.51.67-1.73.28-.06.5-.23.45-.56s-.39-.34-.67-.28c-1.57.39-2.13,1.9-1,3.35a6.46,6.46,0,0,0,3.75,2.08,18.85,18.85,0,0,0,4.31.39c.67,0,1.28.22,2,.28.44,0,.9,0,1.28.11a5.87,5.87,0,0,1-2.57,1.85c.05,1,.11,2,.17,3.07A21.5,21.5,0,0,0,384,113a10.15,10.15,0,0,0,.95,4.31,4,4,0,0,1-2.51-1.45c-.73.73-1.46,1.45-2.58,1.23a14.89,14.89,0,0,0,.79-2.24,14.61,14.61,0,0,0,.28-2.18.55.55,0,0,0-.23-.39,4.17,4.17,0,0,1-2.85-3.59,4.86,4.86,0,0,1-.17-1.56,3.36,3.36,0,0,0-1.57-3.14c-.11,0-.17-.17-.33-.28.72-.5,1.4-1,2.12-1.4a2.16,2.16,0,0,1,3,.75,2.53,2.53,0,0,1,.18.37c.16.5.22,1.06.39,1.57a.89.89,0,0,0,.28.56c.33.39.73.73,1.06,1.06a3.91,3.91,0,0,0,2.8.9c1.29.06,2.58,0,3.86,0,.12,0,.23,0,.34,0l.11.11c-.89.67-1.62,1.28-2.52,2.07m-8.45-6.1c-.5-.4-.9-.5-1.23-.23a.32.32,0,0,0,0,.56c.39.28.84.17,1.23-.34Z" transform="translate(-89.62 -77.29)"/><path class="cls-3" d="M406,113c-.84.61-1.62,1.17-2.51,1.84v2.8a22.4,22.4,0,0,0-4.59-4.53,7.94,7.94,0,0,0,.84,4.2c-.62.06-1.18-.28-2.52-1.34-.73.67-1.46,1.4-2.58,1.17a11.89,11.89,0,0,0,.67-1.84,18.59,18.59,0,0,0,.34-2.58.57.57,0,0,0-.22-.39,4,4,0,0,1-2.8-3.36,20.27,20.27,0,0,1-.28-2.69,2.75,2.75,0,0,0-1.12-2c-.23-.21-.48-.42-.73-.61.67-.45,1.29-1,1.9-1.34a2.23,2.23,0,0,1,3.47,1.4c.11.39.11.84.22,1.23.06.16.06.39.17.44a11.94,11.94,0,0,0,2.13,1.68,4.48,4.48,0,0,0,1.73.34c.73.06,1.4.06,2.13.06h2.24c-.79.67-1.57,1.34-2.35,2.07a12,12,0,0,0,3.19,1.17,9.93,9.93,0,0,1-4.76.67,11.34,11.34,0,0,1-3.3-.72,4.78,4.78,0,0,1-2.13-1.46,1.07,1.07,0,0,1-.05-1.52,1.11,1.11,0,0,1,.61-.33c.34,0,.5-.16.45-.5s-.39-.39-.67-.28c-1.79.45-2,2.19-.9,3.42a6.33,6.33,0,0,0,3.7,2c1.18.22,2.41.28,3.64.39.9.11,1.79.22,2.63.34a9.32,9.32,0,0,0,1.18,0c.22.12.27.17.27.23m-12.31-9.41c-.67-.56-1.06-.56-1.4.12.57.5,1,.5,1.4-.12" transform="translate(-89.62 -77.29)"/><path class="cls-3" d="M405.31,103.67c.84-.56,1.51-1.07,2.29-1.52a2.2,2.2,0,0,1,2.94,1l.09.19c.16.5.22,1,.39,1.51a2.23,2.23,0,0,0,.39.84,10.64,10.64,0,0,0,2,1.51,3.41,3.41,0,0,0,1.67.28c1.29.06,2.58,0,3.92,0a3.66,3.66,0,0,0,.45-.11c-.25.27-.51.54-.78.78a3.93,3.93,0,0,1-.79.62l-.84.67a9.34,9.34,0,0,0,3.14,1.18v.16a14.62,14.62,0,0,1-2.69.56,12,12,0,0,1-5.65-.9,3.79,3.79,0,0,1-1.74-1.4c-.56-.84-.28-1.51.67-1.73h.06c.28-.06.5-.22.39-.5s-.33-.39-.61-.34a1.87,1.87,0,0,0-1.61,2.1,1.84,1.84,0,0,0,.21.65,3.92,3.92,0,0,0,1.68,1.74,10,10,0,0,0,4.31,1.23c.9,0,1.79,0,2.63.11.56,0,1.12.22,1.74.28.44.05.9.05,1.34.11a5.56,5.56,0,0,1-2.24,1.68c-.28.11-.39.17-.34.56.12.84.12,1.68.17,2.69a21.87,21.87,0,0,0-4.76-4.7,9.34,9.34,0,0,0,1,4.31,3.83,3.83,0,0,1-2.52-1.46,3.17,3.17,0,0,1-2.58,1.29c.28-1,.62-1.9.84-2.86a14.83,14.83,0,0,0,.17-1.62.46.46,0,0,0-.23-.34,4.23,4.23,0,0,1-2.91-3.64,5.91,5.91,0,0,1-.16-1.73,3.09,3.09,0,0,0-1.46-2.85.69.69,0,0,1-.56-.34m3.19-.12c-.45-.44-.84-.5-1.12-.33s-.33.45,0,.67.67.17,1.12-.34" transform="translate(-89.62 -77.29)"/><path class="cls-3" d="M1021.62,230.29v55.24c0,23.25,12.63,40,37.33,46.6,24.7-6.57,37.34-23.41,37.34-46.6V230.29Zm71.86,54.9c0,22-11.17,37.45-34.53,44-23.35-6.62-34.53-22.06-34.53-44v-52.1h69.06Z" transform="translate(-89.62 -77.29)"/><path class="cls-3" d="M1084.61,285.7l-14.09,13.47,5.56-24L1063,297l-4-28.86L1055,297l-13.08-21.9,5.56,24-14.09-13.47,7.3,17.8L1029,294.74c5.45,14.88,10.22,23.19,30,30,19.82-6.79,24.53-15.1,30-30l-11.74,8.76Z" transform="translate(-89.62 -77.29)"/><path class="cls-3" d="M1038.24,258.41c6,0,9.76-3.31,9.76-8.7v-12.8h-5v12.8c0,3.14-1.63,4.77-4.71,4.77s-4.66-1.74-4.66-4.83V236.91h-5v12.91c.05,5.39,3.65,8.59,9.66,8.59" transform="translate(-89.62 -77.29)"/><path class="cls-3" d="M1068.21,251.79c0-2.42-1.29-4.1-3.81-5a4.51,4.51,0,0,0,2.86-4.27c0-3.59-2.86-5.61-8-5.61h-7.08v21.17h7c5.78,0,9-2.25,9-6.29M1057,240.45h2c2.42,0,3.54.78,3.54,2.41s-1.35,2.53-3.76,2.53H1057v-4.94Zm0,8.31h2.08c2,0,4.32.5,4.32,3s-2.3,2.86-4.21,2.86h-2.13v-5.83Z" transform="translate(-89.62 -77.29)"/><path class="cls-3" d="M1082.14,258.41a13.91,13.91,0,0,0,7-1.8l.17-.11-.73-4-.34.17a11.18,11.18,0,0,1-5.78,1.74c-4,0-6.57-2.7-6.57-7s2.41-7,6.51-7a9.46,9.46,0,0,1,5.45,1.8l.33.22.73-4.32-.16-.11a13.32,13.32,0,0,0-6.52-1.52c-6.8,0-11.39,4.38-11.39,10.95,0,6.74,4.43,11,11.28,11" transform="translate(-89.62 -77.29)"/><path class="cls-3" d="M1048.85,267.68c4.21,0,4.88-2.08,10.1-2.08s5.9,2.13,10.11,2.08,4.88-2.08,10.1-2.08,6,2.13,10.11,2.08v-4.83c-4.15,0-4.89-2.08-10.11-2.08s-5.9,2.08-10.1,2-4.89-2.08-10.11-2.08-5.9,2.08-10.1,2.08-4.89-2.08-10.11-2.08-6,2.08-10.11,2.08v4.83c4.16,0,4.89-2.08,10.11-2.08s6,2.14,10.11,2.14" transform="translate(-89.62 -77.29)"/><path class="cls-3" d="M1069.06,271.21c-3.37,0-4.49-1.29-7.47-1.85l.67,4.94c2.53.62,3.71,1.74,6.8,1.74,4.15,0,4.88-2.08,10.1-2.08s6,2.14,10.11,2.08v-4.83c-4.15,0-4.89-2.07-10.11-2.07s-5.89,2.07-10.1,2.07" transform="translate(-89.62 -77.29)"/><path class="cls-3" d="M1048.85,276c3.08,0,4.32-1.12,6.79-1.74l.67-4.94c-3,.51-4.1,1.86-7.46,1.86-4.16,0-4.89-2.08-10.11-2.08s-6,2.07-10.11,2.07V276c4.16,0,4.89-2.07,10.11-2.07s6,2.13,10.11,2.07" transform="translate(-89.62 -77.29)"/><path class="cls-3" d="M1067.66,284.41l2.91-4.89a12.8,12.8,0,0,1-1.52.12c-2.86,0-4.1-1-6.28-1.58l.67,5.06a23.66,23.66,0,0,0,4.22,1.29" transform="translate(-89.62 -77.29)"/><path class="cls-3" d="M1077.93,277.62l-1.12,4.94a14.22,14.22,0,0,1,2.35-.17c5.22,0,6,2.13,10.11,2.08v-4.83c-4.15,0-4.89-2.08-10.11-2.08a8.45,8.45,0,0,0-1.23.06" transform="translate(-89.62 -77.29)"/><path class="cls-3" d="M1041.1,282.56l-1.12-4.94c-.4,0-.79-.06-1.24-.06-5.22,0-6,2.08-10.11,2.08v4.83c4.16,0,4.89-2.08,10.11-2.08a14.34,14.34,0,0,1,2.36.17" transform="translate(-89.62 -77.29)"/><path class="cls-3" d="M1055.13,278.06c-2.19.62-3.43,1.58-6.29,1.58a12.8,12.8,0,0,1-1.51-.12l2.92,4.89a18.81,18.81,0,0,0,4.21-1.29Z" transform="translate(-89.62 -77.29)"/><path class="cls-3" d="M632.81,273.19c-.86.1-1.73.17-2.59.19a17.48,17.48,0,0,1-2.6-.26,27.4,27.4,0,0,1,.26,3.73v4.55l.06,10.75c0,4.3.13,5.18,1.2,6.89a8.93,8.93,0,0,0,2.66,2.71c2.08,1.52,4.42,2,8.6,2,3.92,0,6.38-.57,8.53-2.09,3.16-2.21,3.85-4.17,3.85-11.5l-.06-7.08c0-.57.06-2.08.06-4.61,0-1.9.07-3.23.07-4,.06-.32.06-.76.12-1.39-1,.06-1.83.19-2.27.19a21.9,21.9,0,0,1-2.28-.19c.19,1.58.26,2.21.32,3.53.12,1.78.19,4,.19,6.33v7c0,4.93-.13,6.07-1.08,7.46A6.72,6.72,0,0,1,646,299a9.74,9.74,0,0,1-5.43,1.32c-3.23,0-6.2-1.2-7.27-2.84-.89-1.33-1-1.9-1-6.57v-9.1c0-.51.06-1.33.06-2.47s.06-1.83.06-2.09c.13-1.64.19-2.33.38-4m-12.26,4.36c-.06-.95-.13-1.64-.13-2.15a13.38,13.38,0,0,1,.26-2.27,27,27,0,0,1-3.48.19h-4.62l-5.31-.07-3-.06c.19,3.53.25,5,.31,7.26v12.33c0,3.22-.06,5.37-.06,6.38s-.19,2.34-.38,4.17c1-.06,1.84-.12,2.34-.12s1.58.06,2.85.19a90,90,0,0,1-.32-10v-3.86h4.74a37.25,37.25,0,0,1,5.87.45c-.06-.95-.12-1.65-.12-2.15a13.37,13.37,0,0,1,.25-2.28,27.57,27.57,0,0,1-5.37.38H609v-7.14l.06-1.83h4.81a45.39,45.39,0,0,1,4.8.25,15.9,15.9,0,0,0,1.83.32m-25.47.82a22.36,22.36,0,0,1,.63-2.28,7.3,7.3,0,0,1,.82-1.77,14.7,14.7,0,0,0-2.9-.88,19.51,19.51,0,0,0-4.3-.51c-3.23,0-5.38.76-7.08,2.47a8.52,8.52,0,0,0-2.47,6,6.88,6.88,0,0,0,3.1,6.06,26.22,26.22,0,0,0,4.24,2.28,19.12,19.12,0,0,1,4,2.15,4.54,4.54,0,0,1,2.34,3.85c0,3-2.46,5.12-6.07,5.12a10.13,10.13,0,0,1-4.67-1.14,13.85,13.85,0,0,1-3.1-2.15,15.2,15.2,0,0,1-1.33,4.49,14.1,14.1,0,0,0,5.18,1.65,18.16,18.16,0,0,0,3,.25c4,0,7.07-1.33,9-3.86a8.82,8.82,0,0,0,2-5.5,7.72,7.72,0,0,0-1-3.92c-.88-1.32-2.15-2.33-5.18-3.85-4.24-2.15-4.87-2.47-5.88-3.22a4.42,4.42,0,0,1-1.77-3.48c0-2.59,1.83-4.3,4.61-4.3a13,13,0,0,1,2.91.51,12,12,0,0,1,3.86,2m63.65,31H514.62v-72h144.1Z" transform="translate(-89.62 -77.29)"/><path class="cls-3" d="M1087.82,155.54a1.91,1.91,0,0,0-1.33-1.52s-.1-.05-.14-.05a1.2,1.2,0,0,0,.24-.15,2,2,0,0,0,.84-1,1.83,1.83,0,0,0-1-2.21,3.57,3.57,0,0,0-1.47-.29H1082v7.75h3.48a2.51,2.51,0,0,0,1.52-.54,2,2,0,0,0,.79-2m-4.52-4.17h2a1,1,0,0,1,.94,1s0,.07,0,.1a.79.79,0,0,1-.39.68,1.23,1.23,0,0,1-.54.2,1.63,1.63,0,0,1-.49.05h-1.43v-2.06Zm2.56,5.5a1.75,1.75,0,0,1-.59.14h-1.92v-2.45h1.92a2,2,0,0,1,.59.15,1,1,0,0,1,.73,1.08,1.31,1.31,0,0,1-.73,1.08Z" transform="translate(-89.62 -77.29)"/><path class="cls-3" d="M1164.86,150.44h0a4.72,4.72,0,0,0-3-.2,4,4,0,0,0-2.85,2.26,4.09,4.09,0,0,0,2,5.43,4.44,4.44,0,0,0,1.34.36,2.72,2.72,0,0,0,.64.05,4.28,4.28,0,0,0,1.66-.3,4,4,0,0,0,2.65-3.68,3.84,3.84,0,0,0-2.45-3.92m.64,5.59a3.24,3.24,0,0,1-2.26,1.13h-.15a2.91,2.91,0,0,1-2.8-1.72,3,3,0,0,1,.11-2.65,2.73,2.73,0,0,1,2-1.47,1.3,1.3,0,0,1,.44,0h.24a2.94,2.94,0,0,1,3,2.31,3.12,3.12,0,0,1-.59,2.45" transform="translate(-89.62 -77.29)"/><path class="cls-3" d="M1094.35,154.61c.1,0,.14-.05.2-.05s.1-.05.14-.05l.1,0a3.59,3.59,0,0,0,.59-.29,2,2,0,0,0,.84-1.92,2.15,2.15,0,0,0-1.18-1.67,3,3,0,0,0-1.28-.29h-3.19v.15c0,1-.1,6.67,0,7.46V158h1.32v-3.33h.83c.3,0,.3,0,.44.24.35.54.64,1.08,1,1.62L1095,158h1.27l.3,0-2.26-3.38Zm-.3-1a7.77,7.77,0,0,1-1.27.1,5.26,5.26,0,0,1-.89-.05v-2.26h.74a7.27,7.27,0,0,1,1.47.1,1.08,1.08,0,0,1,.86,1.27s0,.07,0,.1a.88.88,0,0,1-.45.59,3.81,3.81,0,0,0-.44.15Z" transform="translate(-89.62 -77.29)"/><path class="cls-3" d="M1114.71,156.23l-1.87-5.94h-1.42l-1.86,5.94-1.77-5.94h-1.32l2.4,7.75h1.32l1-3.09c.2-.64.44-1.32.64-2l.29-1L1114,158h1.32l.05-.14c.79-2.46,1.52-4.91,2.31-7.41l0-.25h-1.33Z" transform="translate(-89.62 -77.29)"/><path class="cls-3" d="M1131.64,150.29h-1.18v6.08c-.1,0-.14-.14-.2-.2l-2.94-4.07c-.35-.49-.74-1-1.08-1.52-.15-.15-.25-.24-.34-.24h-1.42v7.8h1.22V152l.15.15.39.54,1.87,2.6c.59.83,1.22,1.67,1.81,2.55.15.2.25.25.3.25h1.37v-.15c.1-1.52.05-6.72,0-7.46Z" transform="translate(-89.62 -77.29)"/><path class="cls-3" d="M1142.09,155v-1.23H1142c-.92,0-1.84,0-2.75,0h-.15v1.08h1.77v2a4,4,0,0,1-3.78-.25,3,3,0,0,1-.65-4.14,3,3,0,0,1,1.43-1.06,3.22,3.22,0,0,1,3,.49l.24.2.88-.88-.14-.15a2.86,2.86,0,0,0-1.18-.68,5.24,5.24,0,0,0-3.58,0,4,4,0,0,0-2.56,3.1,4.07,4.07,0,0,0,1.33,3.78,4.84,4.84,0,0,0,2.31,1.08,3.4,3.4,0,0,0,.78,0,4.57,4.57,0,0,0,.83,0,9.41,9.41,0,0,0,2-.54.54.54,0,0,0,.39-.59c-.05-.8-.05-1.53-.05-2.27" transform="translate(-89.62 -77.29)"/><polygon class="cls-3" points="1010.67 77.37 1014.49 77.37 1014.49 76.24 1010.67 76.24 1010.67 74.13 1014.79 74.13 1014.79 73 1009.39 73 1009.39 80.8 1014.99 80.8 1014.99 79.67 1010.67 79.67 1010.67 77.37"/><path class="cls-3" d="M1156.42,156.37l-.39-.24-.1.1a2.93,2.93,0,0,1-1.92.93,3.09,3.09,0,0,1-2.2-.73,3.15,3.15,0,0,1-.25-4.18,2.94,2.94,0,0,1,2.06-1,2.6,2.6,0,0,1,2.11.79l.1.1,1-.74-.1-.14a2.76,2.76,0,0,0-1-.79,4.72,4.72,0,0,0-3-.24,4,4,0,0,0-2.65,1.91,4,4,0,0,0-.34,3.19,4.15,4.15,0,0,0,3.48,2.94c.15,0,.29,0,.44,0a5.34,5.34,0,0,0,1-.1,4.61,4.61,0,0,0,2.31-1.23l.15-.14-.15-.1a1.69,1.69,0,0,1-.49-.35" transform="translate(-89.62 -77.29)"/><rect class="cls-3" x="1030.44" y="73" width="1.23" height="7.75"/><path class="cls-3" d="M1171,156.81a1,1,0,0,0-.64-.24.86.86,0,0,0-.84.78.78.78,0,0,0,.25.54.93.93,0,0,0,.64.25.83.83,0,0,0,.59-.25.85.85,0,0,0,0-1.08" transform="translate(-89.62 -77.29)"/><path class="cls-3" d="M1053.62,109.36c.59-.14,1.12-.24,1.71-.39,1.08-.2,2.16-.44,3.24-.64.64-.14.64-.14.79.54.39,1.77.78,3.49,1.13,5.25.54,2.6,1.08,5.16,1.67,7.76l.29,1.32c.15.54.29.64.83.54a43.62,43.62,0,0,0,5.06-1c.29-.1.59-.15.88-.24s.49-.25.44-.64c-.1-.84-.24-1.67-.39-2.5-.79-4.08-1.62-8.2-2.45-12.28,0-.29,0-.39.24-.44,1.62-.34,3.24-.68,4.86-1.08.2,0,.29,0,.29.2.3,1.62.64,3.19,1,4.76.25,1.23.5,2.5.74,3.73.54,2.65,1,5.35,1.57,8,.49,2.46,1.08,4.91,1.62,7.41.29,1.42.54,2.9.83,4.32.35,1.82.74,3.63,1.08,5.4.3,1.37.54,2.75.79,4.12,0,.35,0,.35-.3.44-.63.2-1.32.35-2,.49-.83.2-1.72.35-2.55.54a.35.35,0,0,0-.2.05c-.2,0-.29,0-.34-.24l-.59-2.65-1.62-7.8c-.4-1.92-.84-3.83-1.28-5.74-.15-.54-.15-.54-.69-.44-1.81.34-3.63.73-5.4,1.08-.24,0-.49,0-.73.1-.44.1-.54.24-.49.68.49,2.36,1,4.66,1.47,7,.64,3,1.32,6.08,2,9.08v.1c.05.39.05.39-.29.49-.69.2-1.33.34-2,.49-.84.2-1.67.39-2.46.54-.59.15-.64.1-.73-.49-.2-1.13-.45-2.26-.64-3.39-.59-2.94-1.18-5.94-1.77-8.88-.39-2-.88-4-1.32-6.08-.4-1.82-.74-3.64-1.13-5.4-.59-2.65-1.18-5.3-1.77-8-.43-2-.82-3.94-1.26-5.9,0,.15-.1,0-.1,0Zm18.25,13.4c0,.3,0,.35-.29.4l-7.17,1.47c-.88.2-1.71.34-2.6.49-.29,0-.29,0-.39-.25,0,0-.05-.1-.05-.14-.34-1.47-.69-3-1-4.42l-1-4.86c-.4-1.82-.74-3.58-1.13-5.4,0-.35,0-.35-.39-.3s-.89.15-1.28.25a1.33,1.33,0,0,1-1,0c-.25-.1-.54-.2-.84-.29a.16.16,0,0,0-.14,0s0,.1.05.1.14.14.24.2a6.28,6.28,0,0,1,.69.39.71.71,0,0,1,.29.39c.15.49.25.93.35,1.42.63,3.1,1.22,6.24,1.86,9.33.35,1.67.74,3.34,1.08,5,.69,3.34,1.42,6.63,2.11,10,.54,2.5,1,5,1.57,7.51a1.6,1.6,0,0,1,0,.84.4.4,0,0,0,0,.24v.1c0-.05.1-.05.1-.1a.17.17,0,0,0,.05-.15c0-.24.2-.29.4-.29a4.47,4.47,0,0,0,.78-.2l1-.44c.3-.1.3-.1.25-.44a.53.53,0,0,0,0-.25c-.49-2.5-1-5-1.52-7.46-.54-2.8-1.13-5.59-1.67-8.39,0-.24,0-.34.24-.44l.49-.15c1.13-.2,2.26-.44,3.44-.64,1.37-.29,2.75-.54,4.12-.83l1.52-.34a.76.76,0,0,1,.49-.05c.25.05.1.29.15.44.29,1.23.54,2.45.79,3.68l.88,4.56c.49,2.46,1,4.86,1.52,7.32a2.47,2.47,0,0,1,0,1.32v.39a.18.18,0,0,0,.1,0,.21.21,0,0,0,0-.15.81.81,0,0,1,.59-.54c.41-.16.82-.34,1.22-.54s.35-.15.3-.59l-1.33-6.09c-.54-2.6-1-5.2-1.57-7.8-.39-2-.88-3.92-1.27-5.93-.25-1.23-.45-2.5-.64-3.73-.15-.84-.35-1.67-.54-2.5-.35-1.67-.64-3.34-1-5-.2-.93-.35-1.81-.54-2.75,0-.14-.1-.14-.2-.14a3.13,3.13,0,0,0-.69.14,3.11,3.11,0,0,1-1.91,0,.63.63,0,0,0-.3,0,.18.18,0,0,0-.1,0l.1.1.64.3a.62.62,0,0,1,.49.54c.1.73.25,1.47.39,2.21.5,2.6,1,5.2,1.53,7.8.24,1.17.44,2.35.68,3.58a8.37,8.37,0,0,0,.15,1.12Z" transform="translate(-89.62 -77.29)"/><path class="cls-3" d="M1157.84,142.09c-.73,0-1.37-.1-2-.14s-1.57-.15-2.35-.2c-.25,0-.35-.1-.4-.35-1.12-5.84-2.74-11.58-4.22-17.37-.39-1.47-.73-3-1.12-4.46,0,0,0-.1,0-.1a.42.42,0,0,0-.1-.2c0,.1,0,.14-.1.24a2.88,2.88,0,0,1,0,.59c-.1,1.23-.25,2.46-.35,3.63-.14,1.33-.29,2.7-.44,4s-.24,2.45-.39,3.63L1146,134l-.3,2.8c-.1,1-.24,2-.34,3,0,.2,0,.39,0,.59s0,.34-.34.29c-.54,0-1,0-1.57-.1-1-.1-2.07-.24-3.15-.34h-.14c-.35,0-.39-.1-.35-.44.1-1.33.2-2.65.35-4s.24-2.55.39-3.78c.15-1.47.34-2.94.49-4.41.15-1.23.3-2.5.39-3.73.2-1.92.4-3.78.59-5.69.15-1.53.3-3.1.5-4.62s.34-3.19.49-4.76.29-3.24.49-4.86l.29-2.65c0-.29,0-.34.39-.34a29.42,29.42,0,0,1,4.08.44c.29,0,.39.2.49.49,1,3.34,1.81,6.73,2.65,10.11s1.62,6.53,2.4,9.82c.2.83.49,1.66.78,2.55,0,0,0,.1.1.15s.05-.1.05-.15c.15-1.42.25-2.85.39-4.27.15-1.23.3-2.5.45-3.73.1-.83.14-1.67.24-2.5.15-1.18.3-2.35.39-3.53.11-1,.25-2.06.35-3.14.15-1.48.29-2.9.44-4.37,0-.29,0-.34.35-.29,1,.1,2,.24,3,.34.64.1,1.27.2,2,.24.3,0,.3,0,.25.35-.2,1.47-.35,3-.54,4.46-.15,1.23-.25,2.5-.4,3.73s-.29,2.5-.44,3.78-.34,2.65-.49,4c-.15,1.52-.29,3.09-.44,4.61-.1,1-.3,2-.39,2.94-.15,1.13-.3,2.26-.45,3.44-.2,1.52-.39,3-.54,4.51-.14,1-.24,2.11-.34,3.15-.1,1.22-.2,2.5-.29,3.72.1.2,0,.2-.3.2m-15.26-4.56h.54a1.07,1.07,0,0,0,.4-.05s0-.2,0-.29v-.05c.1-1,.24-2,.34-2.95.15-1.52.29-3.09.49-4.61l.59-5.15c.15-1.33.34-2.65.49-3.93.1-.83.15-1.62.24-2.45.1-1.08.25-2.11.35-3.19s.24-2.11.39-3.19c0-.1.15-.2.2-.35.05.1.15.2.2.3s0,.15.1.24c.39,1.33.84,2.65,1.18,3.93.49,1.62.93,3.29,1.37,4.91s.79,3,1.23,4.51c.69,2.46,1.37,4.86,2.06,7.31.54,1.87,1,3.68,1.52,5.55a1.47,1.47,0,0,1,0,.83c-.1.3-.14.64-.24.93a.43.43,0,0,0,0,.25.26.26,0,0,0,.1-.2,6.08,6.08,0,0,1,.34-.93c.1-.3.15-.3.49-.3s.93,0,1.37.1c0,0,.1-.05.15-.1-.15-.14,0-.29,0-.44.1-1,.25-2.06.34-3.14.1-.69.15-1.37.2-2,.1-1,.25-2,.35-3,.1-.79.14-1.57.24-2.36.1-1,.25-1.91.35-2.9s.24-2,.34-2.94.25-1.77.34-2.65.2-1.92.35-2.85c.14-1.18.29-2.35.44-3.58s.2-2.31.34-3.48c.2-1.72.4-3.44.64-5.16,0-.14,0-.24-.15-.24-.39,0-.78-.15-1.17-.2a1.39,1.39,0,0,1-1.08-.54c0-.05,0-.1-.1-.1s-.1,0-.15,0v.15a1.61,1.61,0,0,1,.2,1.08c0,.24,0,.54-.1.78-.1,1-.2,1.91-.34,2.9-.2,1.57-.4,3.19-.59,4.76-.1.69-.15,1.42-.2,2.11s-.1,1.28-.15,1.87-.1,1.27-.2,1.91-.2,1.47-.25,2.16c-.1,1-.2,2-.34,3s-.24,2.36-.34,3.48l-.3,2.36a12.62,12.62,0,0,0-.1,1.37.63.63,0,0,1-.05.3c0-.1-.14-.15-.2-.25s-.05-.05-.05-.1l-1.76-5.59c-.44-1.47-.79-3-1.18-4.42-.44-1.67-.93-3.33-1.33-5-1-4.08-1.91-8.15-2.89-12.22a6.09,6.09,0,0,1-.15-1c0-.35,0-.4-.4-.44s-.93-.15-1.37-.25a1.06,1.06,0,0,1-.54-.24,1,1,0,0,0-.34-.2.53.53,0,0,0-.25,0s0,.15.1.2a.74.74,0,0,1,.2.84c-.1.49-.14,1-.2,1.52l-.29,2.65c-.1.74-.2,1.47-.25,2.16-.1.88-.14,1.72-.24,2.6-.1,1.13-.25,2.21-.35,3.34l-.29,2.5c-.15,1.12-.29,2.2-.39,3.33-.2,1.67-.35,3.34-.49,5-.1,1.13-.25,2.21-.35,3.34-.1.93-.2,1.81-.29,2.74s-.2,1.72-.25,2.56a16,16,0,0,1-.44,3.43.71.71,0,0,0,0,.29v.17s0,0,.1-.1.15-.34.25-.54.1-.29.44-.29a1.05,1.05,0,0,0,.73.29" transform="translate(-89.62 -77.29)"/><path class="cls-3" d="M1179.09,122.17c0,.54.1.44.44.54,2.46.54,4.86,1.13,7.32,1.67l1.52.34c.2,0,.24.1.2.3l-1,4.71c0,.05,0,.1,0,.2s-.14.29-.39.2l-5.3-1.18c-1.18-.25-2.35-.49-3.53-.79a.43.43,0,0,1-.25,0c-.2,0-.24,0-.29.25l-.74,3.24c-.59,2.65-1.18,5.35-1.76,8-.1.34-.1.39.29.49l2.11.44c3.14.64,6.23,1.33,9.37,2h0c.54.15.54.15.44.69a34.44,34.44,0,0,1-1,4.47c-.14.39-.14.44-.54.34-1.18-.24-2.3-.54-3.48-.78-2.9-.69-5.79-1.28-8.69-1.87-1.62-.29-3.19-.64-4.81-1a.93.93,0,0,0-.2-.05c-.29-.1-.29-.1-.24-.39l.44-2.21c1.23-5.74,2.5-11.53,3.78-17.27l1.91-8.54c.64-2.9,1.23-5.84,1.87-8.74,0-.34.15-.68.2-1s.1-.39.44-.29c1.57.29,3.14.64,4.71,1,2.36.49,4.71,1,7.07,1.57,1.91.44,3.78.83,5.69,1.28.39.1.44.14.34.49l-1,4.56c-.05.25-.1.29-.39.2-1.77-.39-3.58-.78-5.35-1.23-1.42-.29-2.8-.63-4.22-.93-.69-.15-1.37-.39-2.06-.54s-.69-.34-.88.54l-1.48,6.62c-.14.78-.29,1.52-.39,2.3,0,.15-.05.3-.05.44m6.28,4.91c.2,0,.3,0,.35-.25.1-.39.2-.73.29-1.13a.2.2,0,0,0-.09-.27l-.06,0s-.14,0-.2,0c-1.17-.29-2.4-.54-3.58-.83l-4.22-1a11,11,0,0,0-1.27-.25c-.2,0-.25-.15-.25-.29s.05-.44.1-.64c.25-1.23.49-2.4.79-3.63.44-2.11.93-4.22,1.37-6.33.2-.93.39-1.82.64-2.75.1-.34.15-.39.49-.29.59.1,1.18.24,1.72.34l7.21,1.62c.88.2,1.77.34,2.65.54.34.05.39,0,.44-.34s.15-.54.2-.84c0-.1.1-.15.15-.2s.15-.1.2-.15-.15,0-.25,0a.71.71,0,0,1-.29,0c-1.08-.25-2.16-.45-3.24-.69-3.09-.69-6.23-1.42-9.32-2.16a3.07,3.07,0,0,1-1.82-.74,0,0,0,0,1-.05,0h0v0a.42.42,0,0,0,.05.25c.29.29.1.64,0,.93s-.1.25-.15.39c-.49,2.07-1,4.18-1.42,6.24-.54,2.45-1,4.9-1.57,7.36l-.74,3.09c-.34,1.77-.68,3.53-1.08,5.3-.68,3.14-1.32,6.28-2,9.42a6,6,0,0,1-.64,2.11.83.83,0,0,0-.1.35v.14c0-.05.1-.05.15-.1.2-.39.44-.34.83-.24,1,.29,2.11.54,3.15.78.34.1.73.05,1.08.15a14.3,14.3,0,0,0,1.42.29c1,.15,1.91.45,2.84.59a18.44,18.44,0,0,1,2.21.59c.84.2,1.72.34,2.55.54.21.05.3,0,.35-.24,0-.35.15-.74.2-1.08s0-.3-.25-.35l-4.66-1c-2.16-.49-4.36-.93-6.53-1.42-.39-.1-.39-.1-.34-.49.39-1.72.79-3.44,1.13-5.15.69-3.24,1.42-6.43,2.11-9.67,0-.35.2-.39.54-.35l.69.15a16.23,16.23,0,0,0,1.62.44c1.61.35,3.24.69,4.9,1a9.71,9.71,0,0,0,1.66.45Z" transform="translate(-89.62 -77.29)"/><path class="cls-3" d="M1120.55,135.62v-3.24c0-2.21,0-4.42,0-6.58a10.8,10.8,0,0,0-.44-3c-.69-2.4-1.43-4.76-2.11-7.16s-1.33-4.86-2-7.32c-.54-2.11-1.13-4.17-1.66-6.28-.1-.44-.25-.93-.35-1.37,0-.25,0-.29.2-.29a4.84,4.84,0,0,1,.93,0h4c.45,0,.45,0,.59.49.49,2,1,4,1.52,5.93.59,2.31,1.13,4.62,1.77,6.92a6.4,6.4,0,0,0,.39.84,6.2,6.2,0,0,0,.35-.84c.59-2.11,1.22-4.27,1.81-6.38l1.48-5.15c.13-.45.25-.91.34-1.37a2,2,0,0,1,0-.24c0-.15,0-.15.1-.15.64,0,1.23,0,1.86,0,.84,0,1.62,0,2.46.1a5.27,5.27,0,0,1,.88.1c.34,0,.39.1.29.44s-.24,1-.39,1.52c-.78,3-1.81,5.94-2.75,8.93-1.17,3.78-2.3,7.61-3.43,11.44-.2.63-.34,1.27-.49,2a3.59,3.59,0,0,0,0,.73c0,1.77,0,3.54,0,5.26,0,2.4-.05,4.76-.1,7.16,0,.44,0,.93,0,1.37s0,.35-.34.35h-4a2,2,0,0,1-.49-.05c-.49,0-.49-.1-.49-.59.1-1.28.1-2.36.1-3.49m8.24-34.35c0,.14,0,.29-.1.39-.58,2-1.17,3.93-1.76,5.94-.4,1.32-.84,2.65-1.28,4-.69,2.11-1.37,4.22-2.06,6.28a2.42,2.42,0,0,1-.2.59c0,.05-.1.1-.1.15l-.15-.15s-.05,0-.05-.1c-.34-1-.63-2.06-1-3-.49-1.62-1-3.19-1.47-4.81-.74-2.65-1.42-5.3-2.11-8-.1-.39-.2-.78-.29-1.23,0-.24-.1-.29-.3-.29a5.12,5.12,0,0,1-2.3-.2c-.05,0-.15-.05-.2-.05a0,0,0,0,0,0,.05h0v0s.1,0,.14.1a.77.77,0,0,1,.54.69c0,.29.15.59.2.83.59,2.21,1.13,4.42,1.72,6.63,1.18,4.47,2.4,8.93,3.88,13.3a6.34,6.34,0,0,1,.29,2.16c0,1.32-.1,2.6-.1,3.92,0,2.11,0,4.27,0,6.38a3.76,3.76,0,0,1-.39,2.21v.1c.05,0,.1,0,.1-.05s.15-.2.25-.29a.65.65,0,0,1,.39-.25c.39,0,.83-.1,1.23-.1.24,0,.29-.1.29-.34v-2.85c0-1.33,0-2.7,0-4,0-1.77,0-3.59.1-5.35a7.36,7.36,0,0,1,.15-1.48c.2-.73.39-1.47.63-2.2.5-1.48,1-2.9,1.43-4.37,1.47-4.76,2.94-9.47,4.46-14.23a4,4,0,0,1,.2-.35.47.47,0,0,1,0-.1h-.1a2.18,2.18,0,0,1-1.13-.1l-1.08-.29c-.1-.05-.24-.05-.34-.1h-.15s0,.1.1.1.15,0,.2.1a2.43,2.43,0,0,1,.34.3Z" transform="translate(-89.62 -77.29)"/><path class="cls-3" d="M1085.86,112c.1-1.08.14-2.2.24-3.33a5.06,5.06,0,0,1,.88-2.31,16.08,16.08,0,0,1,1.82-2.21,8.87,8.87,0,0,1,.78-.59l1.13-.68a7.94,7.94,0,0,1,3.19-.89c.54,0,1.13-.14,1.67-.14a10.49,10.49,0,0,1,2.16.29,7.84,7.84,0,0,1,4.81,3.53,13.23,13.23,0,0,1,1.52,3.88,40.33,40.33,0,0,1,.69,4.36c.15,1.18.34,2.31.49,3.49.2,1.47.39,2.9.59,4.36s.39,2.75.54,4.13l.44,3.68c0,.73.15,1.47.15,2.2a9.58,9.58,0,0,1-3.88,7.8,2.91,2.91,0,0,1-1.42.69,6.29,6.29,0,0,0-1,.34,7.39,7.39,0,0,1-3.29.45,9.76,9.76,0,0,1-5.15-2,7.66,7.66,0,0,1-2.8-4,27.75,27.75,0,0,1-.84-3.58c-.29-1.57-.54-3.14-.83-4.76-.15-.94-.25-1.92-.4-2.85-.2-1.37-.44-2.8-.63-4.17-.1-.69-.2-1.42-.3-2.16-.1-.93-.24-1.86-.34-2.8s-.14-1.8-.24-2.79m19.28,18.85a11.37,11.37,0,0,0,0-1.43c-.05-.73-.15-1.47-.2-2.2s-.2-1.62-.29-2.46-.25-1.67-.35-2.5l-.29-2.35c-.15-1-.3-2-.39-3-.1-.59-.15-1.22-.2-1.86s-.2-1.28-.3-2a44.53,44.53,0,0,0-1-5.1,9,9,0,0,0-1.46-3.09,5.34,5.34,0,0,0-2.5-1.87c-.54-.2-1.08-.34-1.62-.54a.17.17,0,0,1-.15,0,7.12,7.12,0,0,0-2,0,11.64,11.64,0,0,0-3,1,5.75,5.75,0,0,0-2.8,3.1,12.39,12.39,0,0,0-.64,3.82,37.91,37.91,0,0,0,.14,4.13c.15,1.66.4,3.33.59,5,.1.93.25,1.87.4,2.8s.29,2.11.49,3.14c.34,1.92.73,3.88,1.13,5.79a12.63,12.63,0,0,0,1.76,4.57,5.7,5.7,0,0,0,3,2.3,5.64,5.64,0,0,0,.93.15c.29.05.63,0,.93.05a6.43,6.43,0,0,0,1.91-.05,17.5,17.5,0,0,0,2.36-.64,5.57,5.57,0,0,0,3.14-3.73,9.78,9.78,0,0,0,.34-3.14" transform="translate(-89.62 -77.29)"/><path class="cls-3" d="M1103.37,130.81a8,8,0,0,1-.39,2.84,4.14,4.14,0,0,1-1.72,2.26,5.12,5.12,0,0,1-.73.39,2.1,2.1,0,0,0-.3.15,2,2,0,0,1-1.42.54,4.66,4.66,0,0,1-5-2.45,10.67,10.67,0,0,1-1.08-3c-.35-1.71-.64-3.43-.94-5.15s-.59-3.29-.83-5c-.1-.64-.15-1.28-.2-1.92-.1-1-.25-2-.35-3-.14-1.33-.29-2.6-.44-3.93a15.53,15.53,0,0,1,.15-4,5.07,5.07,0,0,1,3.58-4.22,6.5,6.5,0,0,1,3.63.29,4.3,4.3,0,0,1,2.6,2.7,22.39,22.39,0,0,1,1,4.42c.3,1.77.54,3.58.79,5.35.15,1.13.34,2.25.49,3.38.25,1.57.49,3.19.69,4.76s.34,3.24.49,4.86a3.21,3.21,0,0,0-.05.69m-1.81.29c-.1-.83-.15-1.62-.25-2.45-.14-1.08-.2-2.21-.39-3.29-.34-1.91-.64-3.88-.88-5.84l-.74-5.3c-.2-1.28-.44-2.55-.69-3.78a4.2,4.2,0,0,0-1-2.06,3.64,3.64,0,0,0-3.38-1.08,3.39,3.39,0,0,0-2.7,2.11,4.77,4.77,0,0,0-.35,2c0,.79.15,1.52.25,2.31.15,1.13.24,2.25.39,3.38.2,1.43.44,2.85.64,4.27.29,1.92.54,3.78.83,5.69.25,1.43.49,2.9.74,4.32a9.32,9.32,0,0,0,.69,2.31,3.28,3.28,0,0,0,2.75,2,3.11,3.11,0,0,0,2.84-1.08,5.31,5.31,0,0,0,1.23-3.48" transform="translate(-89.62 -77.29)"/><path class="cls-3" d="M173.76,114.29a1.63,1.63,0,0,0-1.65,1.61v27.17a1.65,1.65,0,0,0,3.3,0V115.94a1.65,1.65,0,0,0-1.65-1.65m16.91,0h-12.4a1.62,1.62,0,0,0-1.65,1.61v0a1.63,1.63,0,0,0,1.61,1.65h12.44a1.65,1.65,0,0,0,1.65-1.62v0a1.63,1.63,0,0,0-1.62-1.65Zm0,27.13h-12.4a1.65,1.65,0,1,0-.12,3.3h12.52a1.64,1.64,0,0,0,1.65-1.62v0a1.66,1.66,0,0,0-1.65-1.65m-12.4-10.27h8.13a1.65,1.65,0,1,0,.12-3.3h-8.25a1.64,1.64,0,0,0-1.65,1.62v0a1.65,1.65,0,0,0,1.65,1.65m94.53-16.86a1.63,1.63,0,0,0-1.65,1.61v27.17a1.65,1.65,0,0,0,3.3,0V115.94a1.66,1.66,0,0,0-1.65-1.65m17.11,0a1.63,1.63,0,0,0-1.65,1.61v27.17a1.65,1.65,0,0,0,3.3,0V115.94a1.66,1.66,0,0,0-1.65-1.65m-4.79,13.56h-7.49a1.65,1.65,0,0,0-.12,3.3h7.61a1.63,1.63,0,0,0,1.65-1.61v0a1.69,1.69,0,0,0-1.65-1.65m-80.2-13.56a1.63,1.63,0,0,0-1.65,1.61v27.17a1.65,1.65,0,0,0,3.3,0V115.94a1.67,1.67,0,0,0-1.65-1.65m17.15,0a1.63,1.63,0,0,0-1.65,1.61v27.17a1.65,1.65,0,0,0,3.3,0V115.94a1.65,1.65,0,0,0-1.65-1.65m-10.87,8.65a1.63,1.63,0,1,0-2.81,1.67l0,.06,7.41,12a1.66,1.66,0,0,0,2.26.52,1.63,1.63,0,0,0,.52-2.25h0ZM97.27,114.29a1.65,1.65,0,0,0-1.65,1.65v27.13a1.63,1.63,0,0,0,1.61,1.65h0a1.63,1.63,0,0,0,1.65-1.61V115.94a1.66,1.66,0,0,0-1.65-1.65m17.39.44a1.66,1.66,0,0,0-2.34.12l-11.55,12.76a1.66,1.66,0,0,0,.12,2.34,1.74,1.74,0,0,0,1.09.44,1.78,1.78,0,0,0,1.21-.52l11.59-12.8a1.66,1.66,0,0,0-.12-2.34Zm-8.21,16.5a1.66,1.66,0,0,0-2.54,2.14l9.22,10.79a1.7,1.7,0,0,0,1.25.56,1.64,1.64,0,0,0,1.08-.4,1.69,1.69,0,0,0,.2-2.33Zm38-15.78a1.65,1.65,0,0,0-1.57-1.16,1.59,1.59,0,0,0-1.57,1.16l-7,22.27-7-22.27a1.64,1.64,0,1,0-3.16.9s0,.05,0,.07l8.54,27.13a1.66,1.66,0,0,0,1.57,1.17h.08a1.63,1.63,0,0,0,1.57-1.17l7-22.18,7,22.18a1.67,1.67,0,0,0,1.57,1.17,1.61,1.61,0,0,0,.48-.08,1.63,1.63,0,0,0,1.09-2v0Zm16-1.08a1.58,1.58,0,0,0-2,1l0,.08-6.12,19.37a1.61,1.61,0,0,0,1,2l.08,0a2,2,0,0,0,.48.08,1.62,1.62,0,0,0,1.57-1.17l6.08-19.36a1.63,1.63,0,0,0-1-2m88.9,3.26a11.74,11.74,0,0,1,8.29,3.38,1.68,1.68,0,0,0,2.33-2.42,15.22,15.22,0,1,0-10.63,26.13A15.05,15.05,0,0,0,260,140.37a1.68,1.68,0,0,0-2.33-2.41,11.88,11.88,0,1,1-8.3-20.33Z" transform="translate(-89.62 -77.29)"/><path class="cls-3" d="M909.37,135.87h-2.61v-5.28a4.54,4.54,0,0,0-.21-1.79,1.32,1.32,0,0,0-1.18-.72,1.7,1.7,0,0,0-1.43.82,5.1,5.1,0,0,0-.46,2.72v4.25h-2.72V131a4.78,4.78,0,0,0-.26-2.15,1.22,1.22,0,0,0-1.18-.77,1.64,1.64,0,0,0-1.43.87,6.08,6.08,0,0,0-.46,3v3.94h-2.62v-10h2.51v1a3.31,3.31,0,0,1,2.72-1.28,3,3,0,0,1,2.77,1.39,3.62,3.62,0,0,1,3-1.39,3.48,3.48,0,0,1,2.77,1.23,4.68,4.68,0,0,1,.72,3v6.1Z" transform="translate(-89.62 -77.29)"/><path class="cls-3" d="M920,134.34a5.07,5.07,0,0,1-4,1.79,5,5,0,0,1-3.53-1.38,5.61,5.61,0,0,1-1.54-3.95,4.94,4.94,0,0,1,4.66-5.22h.52a4.87,4.87,0,0,1,5,4.69v.13a6.52,6.52,0,0,1-1.13,4m-4.05-6.41c-1.43,0-2.35,1.13-2.35,2.92,0,2.06,1.28,2.93,2.46,2.93s2.46-1,2.35-3.08c-.15-1.59-1-2.77-2.46-2.77" transform="translate(-89.62 -77.29)"/><path class="cls-3" d="M931.82,135.88h-2.56v-.77a3.6,3.6,0,0,1-2.72,1.08c-2.51,0-4.46-2.1-4.46-5.18s1.85-5.43,4.62-5.43a3.48,3.48,0,0,1,2.51.92v-4.72h2.56v14.1Zm-2.61-6.15a2,2,0,0,0-2.05-1.69c-1.64,0-2.36,1.38-2.36,2.87,0,1.9,1.18,2.82,2.36,2.82a2.1,2.1,0,0,0,.92-.21c1.18-.56,1.18-1.59,1.18-2.87a7,7,0,0,1,0-.92Z" transform="translate(-89.62 -77.29)"/><path class="cls-3" d="M942.44,134.34a5.09,5.09,0,0,1-4,1.79,5,5,0,0,1-3.54-1.38,5.61,5.61,0,0,1-1.54-3.95,4.94,4.94,0,0,1,4.66-5.22h.52a4.86,4.86,0,0,1,5,4.69v.13a6.51,6.51,0,0,1-1.12,4m-4.05-6.41c-1.44,0-2.36,1.13-2.36,2.92,0,2.06,1.28,2.93,2.46,2.93s2.46-1,2.36-3.08c-.16-1.59-1-2.77-2.46-2.77" transform="translate(-89.62 -77.29)"/><rect class="cls-3" x="855.38" y="55.98" width="2.61" height="2.61"/><path class="cls-3" d="M891.79,173.4a52.54,52.54,0,1,1,29.37,9,52.42,52.42,0,0,1-29.37-9Zm9.79-72.64a35.25,35.25,0,0,0-12.71,15.43,35,35,0,0,0,3.23,33.22,35.34,35.34,0,0,0,15.43,12.72,35,35,0,0,0,33.21-3.24,35.27,35.27,0,0,0,12.72-15.43,35,35,0,0,0-3.23-33.22A35.38,35.38,0,0,0,934.8,97.53a35,35,0,0,0-33.22,3.23Z" transform="translate(-89.62 -77.29)"/><path class="cls-3" d="M154.13,257.22v22h6.39V267.38a8,8,0,0,1,.75-3.89,3.12,3.12,0,0,1,2.7-1.62c3.19,0,2.92,3.3,2.92,5.57v11.84h6.38V265.6c0-2,0-4.76-1.19-6.44a6.41,6.41,0,0,0-5.4-2.43c-3.19,0-5,1.35-6.33,4.16h-.11v-3.73h-6.11Zm2.81,61.48a45.37,45.37,0,0,0,43.21-31.53H113.74a45.43,45.43,0,0,0,43.2,31.53m62.73-59.54a6.91,6.91,0,0,0-5.51-2.38c-2.38,0-4.92,1.25-5.74,3.47h-.1V249.49h-6.38v29.68h6.38V267.33a9,9,0,0,1,.54-3.84,3.36,3.36,0,0,1,3-1.62c2.75,0,2.54,3.57,2.54,5.51v11.85h6.38v-14c.05-2.11.21-4.33-1.14-6.06m-27.09,2.44c2.27,0,3.35,1.94,3.35,3.94l6.06-.32a8.89,8.89,0,0,0-.43-2.11A46.23,46.23,0,0,0,157,228.28a45.06,45.06,0,0,0-43.37,33.64,8.51,8.51,0,0,0-.44,1.79l6,.54c0-2.17,1.79-3.19,3.79-3.19a3.35,3.35,0,0,1,2.6,1,4.58,4.58,0,0,1,.54,2.92v.54c-2.7.27-6.22.44-8.71,1.41a7.79,7.79,0,0,0-3.62,2.54,8.2,8.2,0,0,0-3.89-6.65c-2.06-1.41-5.36-2-7.74-2.49-1.67-.32-4.27-.81-4.27-3s2.27-2.76,4.11-2.76c2.65,0,4.22,1,5.14,3.51l5.89-1.94c-1.84-5.14-6-7-11.25-7a10.92,10.92,0,0,0-7.46,2.44,8.84,8.84,0,0,0-3.19,7c0,6.49,5.19,8.06,10.49,9.14,1.84.38,5.19.87,5.19,3.35s-2.65,3.19-4.65,3.19c-3.09,0-5.36-1.08-6.22-4.21l-6.32,1.35c1.35,5.78,6.43,8.22,12,8.22,3,0,6.22-.54,8.6-2.43a10.11,10.11,0,0,0,2.43-2.82c.49,3.46,3.3,5.25,6.87,5.25,3.3,0,5.19-1.24,7-3.84a12.23,12.23,0,0,0,.33,3.41h6.32a10.06,10.06,0,0,1-.43-3.08c1,2.38,3.46,3.51,6.44,3.51,3.3,0,5.19-1.24,7-3.84a11.86,11.86,0,0,0,.32,3.41h6.33a11.18,11.18,0,0,1-.44-3.3V265.65c0-2.65.22-5.08-2-6.87-1.79-1.46-4.7-2-7-2-4.65,0-9.84,1.57-10.49,6.87l6,.54c0-2.16,1.79-3.19,3.79-3.19a3.36,3.36,0,0,1,2.6,1,4.56,4.56,0,0,1,.54,2.92v.54c-2.7.27-6.22.43-8.71,1.41a7.44,7.44,0,0,0-4.43,3.94v-5.19c0-2.65.21-5.08-2.06-6.87-1.78-1.46-4.7-2-7-2-2.92,0-6.12.65-8.22,2.44a43.87,43.87,0,0,1,41.47-30,45.23,45.23,0,0,1,42.45,30.28,9.79,9.79,0,0,0-7.13-2.81c-6.55,0-10.5,4.32-11,10.49v-10H174.9v22h6.38v-9.68c.43,5.89,4.27,10.05,10.54,10.05,5.36,0,9.47-3.24,10-8.7l-6-.33c-.22,2.06-1.36,3.79-3.57,3.79-3.63,0-3.68-3.79-3.68-6.49s.54-6.27,4.06-6.27Zm-67.22,12.22a3.85,3.85,0,0,1-3.19,1.84,2.68,2.68,0,0,1-2.82-2.51,2.77,2.77,0,0,1,0-.41c0-3.19,4.43-3.79,6.87-4v.86a6.91,6.91,0,0,1-.87,4.22m20.5-5.14v.87c0,1.56.06,2.86-.86,4.21a3.84,3.84,0,0,1-3.19,1.84,2.66,2.66,0,0,1-2.82-2.51,2.81,2.81,0,0,1,0-.41c-.05-3.19,4.43-3.73,6.87-4Zm35.53-19.63H175v6.17h6.39Z" transform="translate(-89.62 -77.29)"/><path class="cls-3" d="M1181.62,272.35v-.07a13.86,13.86,0,0,1,13.71-14h.41a13.67,13.67,0,0,1,14.06,13.26v.68a13.8,13.8,0,0,1-13.68,13.93c-.15,0-.3,0-.44,0a13.65,13.65,0,0,1-14.06-13.23,5.42,5.42,0,0,1,0-.57m23.26,0v-.07a9.25,9.25,0,0,0-9.2-9.58c-5.36,0-9.08,4.28-9.08,9.52v.06c0,5.25,3.84,9.59,9.2,9.59a9.18,9.18,0,0,0,9.09-9.26c0-.08,0-.17,0-.26" transform="translate(-89.62 -77.29)"/><path class="cls-3" d="M1213.32,267h4.28v3.13a7.44,7.44,0,0,1,6.39-3.52c4.41,0,8.69,3.45,8.69,9.72v.06c0,6.2-4.28,9.72-8.69,9.72a7.56,7.56,0,0,1-6.39-3.33v8.57h-4.28Zm15,9.46v-.07c0-3.64-2.42-6-5.36-6s-5.44,2.43-5.44,6v.07c0,3.57,2.56,6,5.44,6s5.36-2.36,5.36-6" transform="translate(-89.62 -77.29)"/><path class="cls-3" d="M1235.88,276.44v-.07c0-5.37,3.77-9.78,9.14-9.78,5.94,0,8.94,4.67,8.94,10.1,0,.39-.06.77-.06,1.22h-13.74a5.18,5.18,0,0,0,5.37,4.73,6.67,6.67,0,0,0,5-2.24l2.49,2.24a9.58,9.58,0,0,1-7.67,3.51,9.28,9.28,0,0,1-9.53-9c0-.23,0-.45,0-.68m13.87-1.41c-.26-2.75-1.92-4.92-4.73-4.92-2.62,0-4.48,2-4.86,4.92Z" transform="translate(-89.62 -77.29)"/><path class="cls-3" d="M1257.61,267h4.28v2.87a6.83,6.83,0,0,1,5.88-3.26c4.22,0,6.65,2.82,6.65,7.16v12h-4.29V275.09c0-2.94-1.47-4.6-4-4.6s-4.22,1.73-4.22,4.67v10.61h-4.28Z" transform="translate(-89.62 -77.29)"/><path class="cls-3" d="M1295,286.15l-4.48-9.2c-.57-1.15-1.08-2-2.43-2h-5v8.37h2.23v2.81h-7.66v-2.81h2.23v-22h-2.23v-2.81h11.12c5.24,0,9.26,2.88,9.26,8.31,0,4-2,6.58-5.62,7.54a8,8,0,0,1,1.79,2.56l3.2,6.39h2.43v2.81Zm-7.1-13.87c4,0,6.65-1.28,6.65-5.37,0-4.28-3.07-5.62-6.65-5.62h-4.79v10.93h4.79Z" transform="translate(-89.62 -77.29)"/><path class="cls-3" d="M1300.88,276.63c0-6.07,4.28-9.65,9.58-9.65s9.59,3.64,9.59,9.65-4.09,9.78-9.59,9.78-9.58-3.78-9.58-9.78m15.91,0c0-4.41-3-7-6.33-7s-6.32,2.62-6.32,7,2.87,7.09,6.32,7.09,6.33-2.74,6.33-7.09" transform="translate(-89.62 -77.29)"/><path class="cls-3" d="M1336.28,286.15v-3.39h-.06a8.73,8.73,0,0,1-7.48,3.71c-3.58,0-6.33-2-6.33-5.37,0-4.35,4.22-6.07,10.29-6.07h3.2v-.51c0-3.65-2-4.86-5-4.86-4.16,0-6.07,2.11-6.07,2.11l-1.66-2s1.85-2.74,7.86-2.74c5,0,8,2,8,7.67v8.88h2.24v2.56h-5Zm-.32-8.56h-3.06c-3.91,0-7.16.83-7.16,3.32,0,1.6,1.34,2.75,3.9,2.75,3.13,0,5.37-2.5,6.32-3.71Z" transform="translate(-89.62 -77.29)"/><path class="cls-3" d="M1358.14,286.15v-3.77h-.06a6.77,6.77,0,0,1-6.39,4c-5.12,0-8.63-3.84-8.63-9.85,0-5.62,3.45-9.58,8.69-9.58,3.45,0,5.43,1.79,6.2,3.58h.06s-.06-.64-.06-1.09v-8.31H1356v-2.55h5.12v25h2v2.56Zm-.13-9.52c0-4.48-2.68-7-5.81-7-3.33,0-6,2.62-6,7s2.5,7.09,6,7.09c3.26,0,5.81-2.75,5.81-7.09" transform="translate(-89.62 -77.29)"/><path class="cls-3" d="M1364.15,258.92h-1v-.38h2.3v.38h-1v2.56h-.45v-2.56Zm2-.38h.45l1,1.6,1-1.6h.45v2.94h-.38v-2.24l-1,1.6h-.07l-1-1.6v2.24h-.45v-2.94Z" transform="translate(-89.62 -77.29)"/><path class="cls-3" d="M1244.25,291.71h2.37l4.92,11.57h-2.62l-1-2.56H1243l-1,2.56h-2.56Zm2.68,6.78-1.53-3.71-1.53,3.71Z" transform="translate(-89.62 -77.29)"/><path class="cls-3" d="M1253.71,298.36v-6.58h2.55v6.51c0,1.86,1,2.88,2.5,2.88s2.49-1,2.49-2.75v-6.64h2.56v6.51c0,3.52-2,5.18-5,5.18s-5-1.72-5-5.11" transform="translate(-89.62 -77.29)"/><polygon class="cls-3" points="1181.41 216.85 1177.9 216.85 1177.9 214.49 1187.42 214.49 1187.42 216.85 1183.91 216.85 1183.91 226.05 1181.35 226.05 1181.35 216.85 1181.41 216.85"/><path class="cls-3" d="M1279.85,297.66h0a6,6,0,0,1,5.89-6h.25a5.84,5.84,0,0,1,6.06,5.61c0,.11,0,.22,0,.33v.07a6.11,6.11,0,0,1-12.21,0Zm9.59,0h0A3.54,3.54,0,0,0,1286,294h-.09a3.43,3.43,0,0,0-3.45,3.4v.25a3.49,3.49,0,0,0,7,.33v-.33" transform="translate(-89.62 -77.29)"/><path class="cls-3" d="M1300.88,297.59h0a5.92,5.92,0,0,1,5.83-6h.17a6.45,6.45,0,0,1,4.54,1.6l-1.6,1.92a4.07,4.07,0,0,0-3-1.15,3.44,3.44,0,0,0-3.32,3.56v.08a3.46,3.46,0,0,0,3.27,3.64h.24a4.24,4.24,0,0,0,2.37-.7v-1.67h-2.56V296.7h5v5a7.44,7.44,0,0,1-4.92,1.86,5.8,5.8,0,0,1-6-5.57,2.41,2.41,0,0,1,0-.38" transform="translate(-89.62 -77.29)"/><path class="cls-3" d="M1315.77,291.78H1321a4.36,4.36,0,0,1,3.32,1.14,3.6,3.6,0,0,1,1,2.63v.06a3.64,3.64,0,0,1-2.49,3.58l2.81,4.09h-2.94l-2.49-3.7h-2v3.7h-2.56v-11.5Zm5.11,5.62c1.21,0,1.92-.64,1.92-1.6v-.06c0-1.09-.77-1.67-2-1.67h-2.5v3.33Z" transform="translate(-89.62 -77.29)"/><path class="cls-3" d="M1328.49,297.59h0a5.94,5.94,0,0,1,5.89-6h.24a5.85,5.85,0,0,1,6.07,5.62,1.82,1.82,0,0,1,0,.33v.06a6.1,6.1,0,0,1-12.2,0Zm9.58,0h0a3.53,3.53,0,0,0-3.42-3.64h-.09a3.44,3.44,0,0,0-3.46,3.4,1.09,1.09,0,0,0,0,.18v.06a3.48,3.48,0,1,0,7,.33,1.82,1.82,0,0,0,0-.33" transform="translate(-89.62 -77.29)"/><path class="cls-3" d="M1344.21,298.36v-6.58h2.55v6.51c0,1.86,1,2.88,2.5,2.88s2.49-1,2.49-2.75v-6.64h2.56v6.51c0,3.52-2,5.18-5,5.18s-5-1.72-5-5.11" transform="translate(-89.62 -77.29)"/><path class="cls-3" d="M1358.27,291.78H1363c2.75,0,4.41,1.59,4.41,4v.06c0,2.69-2.05,4-4.67,4h-1.91v3.45h-2.56Zm4.54,5.81a1.76,1.76,0,0,0,2-1.52,1.49,1.49,0,0,0,0-.21v-.06c0-1.15-.77-1.73-2-1.73h-2v3.52Z" transform="translate(-89.62 -77.29)"/><path class="cls-3" d="M372.49,303.37c0-.45,0-.6.08-.6a2.67,2.67,0,0,0,.15-.68V302h2.87v.08a3.41,3.41,0,0,0,.23.68,4.09,4.09,0,0,0,.07.6v.3h1.44v-.3a3.36,3.36,0,0,0-.08-1.14v-.14c-.22-.76-1.43-4.69-2.19-6.89L375,295h-1.43l-2.27,7.18a3.08,3.08,0,0,0-.07,1.13v.3h1.43Zm1.67-6,1,3.17h-2Zm2.95,15.5c-.38-.6-1.36-2.19-1.36-2.19l-.08-.08h.08a2.18,2.18,0,0,0,1.51-2.12V308a2.27,2.27,0,0,0-2.27-2.27h-3.86v8.62h1.51v-3.55h1.44c.45.68,1.51,2.34,1.66,2.57a1.45,1.45,0,0,1,.16.68v.3h1.43V314a2.79,2.79,0,0,0-.22-1.14Zm-2.05-3.63h-2.5v-2.12h2.5a.76.76,0,0,1,.76.76v.68a.74.74,0,0,1-.76.68Zm32,3.7v-.14c-.22-.84-1.66-5.3-2.11-6.74l-.15-.37h-1.44L401.08,313a3.31,3.31,0,0,0-.08,1.13v.3h1.44v-.3c0-.45,0-.6.08-.6a2.67,2.67,0,0,0,.15-.68v-.08h2.87v.08a2.28,2.28,0,0,0,.23.68,4.09,4.09,0,0,0,.07.6v.3h1.44v-.3c-.15-.83-.23-.91-.23-1.13Zm-4-1.66,1-3.17,1,3.17Zm-12.63-5.59h-3.94v8.7h3.94a2.27,2.27,0,0,0,2.26-2.27v-4.09a2.29,2.29,0,0,0-2.23-2.34h0m.83,6.42a.76.76,0,0,1-.76.76H388v-5.67h2.5a.76.76,0,0,1,.76.76Zm6.95-6.42h-3.93v8.7h1.52v-3.56h2.42a2.27,2.27,0,0,0,2.26-2.27v-.53a2.33,2.33,0,0,0-2.26-2.34Zm.76,2.87a.76.76,0,0,1-.76.76h-2.5v-2.12h2.5a.76.76,0,0,1,.76.76Zm8.55-1.36h2.34v7.18h1.51v-7.18h2.35v-1.51h-6.2Zm12.55,2h-3.18v-3.48h-1.51v8.7h1.51v-3.71h3.18v3.7h1.51v-8.7h-1.51Zm-41.21,5.21h6.2V312.9h-4.69v-2.19H384V309.2h-3.63v-2h4.69v-1.51h-6.2ZM416.2,295h-1.51v5.67L411.44,295H410v8.7h1.52v-5.83l3.25,5.82h1.43Zm-35.92,2.87,3.25,5.82H385V295h-1.51v5.68L380.21,295h-1.44v8.7h1.51Zm42.2-2.87v.31a3.93,3.93,0,0,1-.07.83c-.23.53-1.44,2.57-1.52,2.8l-.07.07-.08-.07s-1.36-2.42-1.51-2.88a2.11,2.11,0,0,1-.08-.75V295h-1.43v.3c0,.9,0,1,.15,1.28l2.19,3.71v3.4h1.51v-3.4l2.19-3.78c.08-.15.16-.3.16-1.21V295Zm-33.65,8.7h1.51v-7.19h2.35V295h-6.2v1.51h2.34ZM399,298.54h-3.18v-3.49h-1.51v8.7h1.51V300H399v3.71h1.51V295H399Zm5.37,5.14H406a2.27,2.27,0,0,0,2.26-2.27v-4.09a2.27,2.27,0,0,0-2.26-2.27h-1.59a2.27,2.27,0,0,0-2.27,2.27v4.09a2.27,2.27,0,0,0,2.27,2.26Zm-.76-6.43a.76.76,0,0,1,.76-.76h1.74a.76.76,0,0,1,.75.76v4.24a.76.76,0,0,1-.75.75h-1.74a.76.76,0,0,1-.76-.75ZM362.59,252.7c0-13.38-9.38-20.41-25.94-20.41h-25V315l14.52-41.29L364.55,315l-18.9-42.35c10.28-2.12,16.94-8.24,16.94-20" transform="translate(-89.62 -77.29)"/><path class="cls-3" d="M863,282.64a6.25,6.25,0,0,1,2-.32c1.36,0,2,.59,2,1.79v5.17h1.36v-5.37c0-1.91-1.09-2.86-3.22-2.86a7.05,7.05,0,0,0-2.13.36v-4.53h-1.36V289.3H863v-6.66Z" transform="translate(-89.62 -77.29)"/><path class="cls-3" d="M878.19,285.24a4.06,4.06,0,1,0-4.06,4.22,4,4,0,0,0,4.06-3.88c0-.11,0-.22,0-.34m-4.06,3a3,3,0,1,1,2.65-3.33,1.88,1.88,0,0,1,0,.34,2.68,2.68,0,0,1-2.36,3l-.31,0" transform="translate(-89.62 -77.29)"/><path class="cls-3" d="M882.47,284.61c-1.29-.41-1.52-.77-1.52-1.34s.48-1,1.27-1a3,3,0,0,1,2,.81l.23.2V281.7l-.07,0a3.73,3.73,0,0,0-2.2-.62,2.28,2.28,0,0,0-2.56,2,2.83,2.83,0,0,0,0,.29c0,1.43.79,2,2.06,2.42s1.82.64,1.82,1.46-.5,1.11-1.48,1.11a3,3,0,0,1-2.11-.91l-.25-.2v1.61l.05,0a3.81,3.81,0,0,0,2.29.66c1.72,0,2.81-.91,2.81-2.38s-.91-2-2.36-2.49" transform="translate(-89.62 -77.29)"/><path class="cls-3" d="M889.54,281.05a8.41,8.41,0,0,0-2.76.5l-.09,0v10.93h1.36v-3.29a4.59,4.59,0,0,0,1.56.25,4,4,0,0,0,4.37-3.66,5,5,0,0,0,0-.55c0-2.7-1.61-4.22-4.45-4.22m.07,7.21a4.17,4.17,0,0,1-1.56-.27V282.5a5.41,5.41,0,0,1,1.5-.18,2.73,2.73,0,0,1,3.05,2.37,2.8,2.8,0,0,1,0,.58,2.76,2.76,0,0,1-2.52,3h-.48" transform="translate(-89.62 -77.29)"/><rect class="cls-3" x="806.19" y="203.94" width="1.36" height="8.07"/><path class="cls-3" d="M896.48,279.87a1,1,0,1,0-1-1,1,1,0,0,0,1,1" transform="translate(-89.62 -77.29)"/><path class="cls-3" d="M904,289v-1.27l-.2.11a2.92,2.92,0,0,1-1.38.41c-.48,0-1-.16-1-1.25v-4.6h2.2v-1.2h-2.2v-1.9H900v1.9h-1.2v1.2H900v4.72c0,1.51.75,2.33,2.11,2.33a3.65,3.65,0,0,0,1.74-.41Z" transform="translate(-89.62 -77.29)"/><path class="cls-3" d="M908.41,289.44a8.51,8.51,0,0,0,2.24-.3l.11,0v-5.49c0-1.7-1-2.58-2.74-2.58a5.11,5.11,0,0,0-2.47.64l-.07,0v1.34l.2-.12a4.57,4.57,0,0,1,2.22-.61c1,0,1.5.48,1.5,1.39v.79h-.72c-2.5,0-3.92.91-3.92,2.47,0,1.11.63,2.45,3.65,2.45m1-1.27a7.79,7.79,0,0,1-1,.09c-1.06,0-2.35-.23-2.35-1.27s1.65-1.32,2.63-1.32h.65v2.5Z" transform="translate(-89.62 -77.29)"/><rect class="cls-3" x="823.41" y="199.57" width="1.36" height="12.42"/><path class="cls-3" d="M864.4,294.06a2.18,2.18,0,0,1,1.3.43l.22.16v-1.36l-.07,0a2.27,2.27,0,0,0-1.47-.43c-1.61,0-2.54,1-2.54,2.74v1.79h-1.2v1.2h1.2v6.89h1.36v-6.87h2.13v-1.2H863.2v-1.79c0-1.34.61-1.52,1.2-1.52" transform="translate(-89.62 -77.29)"/><path class="cls-3" d="M869.91,297.19a4.22,4.22,0,1,0,4.06,4.38v-.16a4,4,0,0,0-3.69-4.21h-.37m0,7.21a3,3,0,1,1,2.66-3.33c0,.11,0,.23,0,.34a2.69,2.69,0,0,1-2.37,3l-.31,0" transform="translate(-89.62 -77.29)"/><path class="cls-3" d="M880.77,304.31a13.6,13.6,0,0,1-1.56.09c-1.52,0-2.25-.57-2.25-1.7v-5.35H875.6v5.4c0,1.93,1.2,2.86,3.68,2.86a14.89,14.89,0,0,0,2.74-.28l.11,0v-8h-1.36Z" transform="translate(-89.62 -77.29)"/><path class="cls-3" d="M887.93,297.19a10.73,10.73,0,0,0-3.31.59l-.09,0v7.62h1.36v-6.71a7.79,7.79,0,0,1,2-.25c1.35,0,2,.59,2,1.79v5.17h1.35V300q-.06-2.85-3.33-2.85" transform="translate(-89.62 -77.29)"/><path class="cls-3" d="M898.93,297.46a4.61,4.61,0,0,0-1.56-.27A4.14,4.14,0,0,0,893,301c0,.13,0,.27,0,.4,0,2.6,1.79,4.21,4.67,4.21a11.62,11.62,0,0,0,2.56-.29l.11,0V293h-1.36Zm0,6.85a11.62,11.62,0,0,1-1.31.07c-2,0-3.29-1.14-3.29-3a2.82,2.82,0,0,1,2.66-3,2.67,2.67,0,0,1,.4,0,3.8,3.8,0,0,1,1.56.3v5.6Z" transform="translate(-89.62 -77.29)"/><path class="cls-3" d="M905.35,297.19a5.05,5.05,0,0,0-2.47.64l-.07,0v1.34l.2-.12a4.65,4.65,0,0,1,2.22-.61,1.31,1.31,0,0,1,1.5,1.39v.81H906c-2.49,0-3.92.91-3.92,2.47,0,1.11.64,2.45,3.65,2.45a9,9,0,0,0,2.25-.29l.11,0v-5.51c0-1.7-1-2.58-2.74-2.58m.43,7.21c-1.07,0-2.36-.23-2.36-1.27s1.65-1.32,2.65-1.32h.66v2.5a5,5,0,0,1-1,.09Z" transform="translate(-89.62 -77.29)"/><path class="cls-3" d="M913,304.42c-.5,0-1-.16-1-1.25v-4.6h2.2v-1.2H912v-1.9h-1.36v1.9h-1.2v1.2h1.2v4.71c0,1.5.75,2.34,2.11,2.34a3.9,3.9,0,0,0,1.74-.41l.09,0v-1.27l-.2.12a3.44,3.44,0,0,1-1.4.41" transform="translate(-89.62 -77.29)"/><path class="cls-3" d="M916.66,294.13a1,1,0,0,0-.95.95,1,1,0,0,0,.95.95,1,1,0,0,0,0-1.9Z" transform="translate(-89.62 -77.29)"/><rect class="cls-3" x="826.36" y="220.09" width="1.36" height="8.07"/><path class="cls-3" d="M923.19,297.19a4.22,4.22,0,1,0,4,4.38c0-.06,0-.11,0-.16a4,4,0,0,0-3.7-4.21h-.36m0,7.21a3,3,0,1,1,2.65-3.33,1.94,1.94,0,0,1,0,.34,2.68,2.68,0,0,1-2.37,3l-.3,0" transform="translate(-89.62 -77.29)"/><path class="cls-3" d="M932.46,297.19a10.63,10.63,0,0,0-3.31.59l-.09,0v7.62h1.36v-6.71a7.66,7.66,0,0,1,2-.25c1.36,0,2,.59,2,1.79v5.17h1.36V300q0-2.85-3.33-2.85" transform="translate(-89.62 -77.29)"/><polygon class="cls-3" points="689.32 192.36 702.83 164.34 695.14 164.34 687.66 181.09 679.78 164.34 672 164.34 686.17 192.36 689.32 192.36"/><path class="cls-3" d="M815.25,269.06a12.29,12.29,0,0,0,5.08-2.72V253.55H809.25v5.6h4v4.13a11.93,11.93,0,0,1-4.64,1,10.57,10.57,0,0,1-7-2.29,7.55,7.55,0,0,1-2.68-6,8.23,8.23,0,0,1,2.68-6.35c1.79-1.65,4.33-2.49,7.61-2.49a23.79,23.79,0,0,1,10.5,2.6v-6.12a24.69,24.69,0,0,0-11.06-2.36c-5,0-9.07,1.34-12.22,4a13.09,13.09,0,0,0-4.72,10.43A12.88,12.88,0,0,0,796.44,266a17.86,17.86,0,0,0,12.06,4.06,23,23,0,0,0,6.75-1" transform="translate(-89.62 -77.29)"/><path class="cls-3" d="M784.38,292.84a6.7,6.7,0,0,1-1.93,5.14,7.27,7.27,0,0,1-5.17,1.82,7.13,7.13,0,0,1-5-1.77,6.05,6.05,0,0,1-1.93-4.72V277.17h-7v16q0,6,3.7,9.25c2.45,2.16,5.92,3.22,10.36,3.22s8-1.06,10.39-3.17,3.65-5.24,3.65-9.34V277.17h-7Z" transform="translate(-89.62 -77.29)"/><path class="cls-3" d="M814.91,289.77c2.57-1.29,3.83-3.15,3.83-5.6a6.2,6.2,0,0,0-2.47-4.92,10.31,10.31,0,0,0-6.82-2.08H797.3v28H811c3.26,0,5.71-.77,7.39-2.29a7.67,7.67,0,0,0,2.51-5.94,7,7,0,0,0-1.54-4.49,7.91,7.91,0,0,0-4.42-2.7m-10.61-7.48H808a3.78,3.78,0,0,1,2.63.84,2.75,2.75,0,0,1,1,2.13,2.89,2.89,0,0,1-1,2.18,3.78,3.78,0,0,1-2.63.86H804.3Zm8,17a7.71,7.71,0,0,1-4,.77h-4v-6.62h4.9a5.2,5.2,0,0,1,3.11.86,2.72,2.72,0,0,1,1.15,2.31,2.85,2.85,0,0,1-1.2,2.68Z" transform="translate(-89.62 -77.29)"/><path class="cls-3" d="M851.14,296.85a39.64,39.64,0,0,1-5.67,2.36,15.42,15.42,0,0,1-4.17.57,10.65,10.65,0,0,1-7.18-2.43,7.84,7.84,0,0,1-2.82-6.17,7.76,7.76,0,0,1,2.84-6.12,11,11,0,0,1,7.32-2.4,19.83,19.83,0,0,1,9.68,2.88v-6.25A19.55,19.55,0,0,0,841,276.81c-5,0-9.09,1.41-12.22,4.22a13.78,13.78,0,0,0-1.23,19.44,13.38,13.38,0,0,0,1,1c3,2.77,6.94,4.13,11.91,4.13A23.15,23.15,0,0,0,851.12,303v-6.13Z" transform="translate(-89.62 -77.29)"/><polygon class="cls-3" points="761.52 174.86 761.52 164.34 754.52 164.34 754.52 174.86 760.39 166.04 760.39 175.99 770.89 175.99 770.89 180.73 760.39 180.73 760.39 191.23 755.65 191.23 755.65 180.73 750.6 180.73 754.52 174.86 743.05 174.86 743.05 164.34 736.04 164.34 736.04 192.36 743.05 192.36 743.05 181.86 754.52 181.86 754.52 192.36 761.52 192.36 761.52 181.86 772.02 181.86 772.02 174.86 761.52 174.86"/><path class="cls-3" d="M1355.24,157.16a4,4,0,1,1-4-4,4,4,0,0,1,4,4h0" transform="translate(-89.62 -77.29)"/><path class="cls-3" d="M1278.71,86.23c-.85-1.81-1.86-4.13-4.09-4.13v-.19h12v.19c-2.39.08-2.54,2.24-1.7,4.09l3.94,8.85,2.24-5.45a11.75,11.75,0,0,0,1-4.36c0-1.85-.81-3.13-2.82-3.13v-.19h8.5v.19c-2.09,0-3.29,1.16-4.33,3a43.64,43.64,0,0,0-2.08,4.63l-5.1,12.05H1286Z" transform="translate(-89.62 -77.29)"/><path class="cls-3" d="M1352.26,83.18a8.31,8.31,0,0,1,6,2.58l.23.27V82.87l0,0a9.78,9.78,0,0,0-6-2,10.32,10.32,0,0,0-10.28,10.35.49.49,0,0,1,0,.12,10.22,10.22,0,0,0,16.25,8.34l.08,0V96.46l-.23.23a8.39,8.39,0,0,1-5.91,2.59,8.05,8.05,0,0,1-.08-16.1" transform="translate(-89.62 -77.29)"/><path class="cls-3" d="M1296.74,114.38c-.35,0-.58.23-.66.65s-.69.81-1.73.81-2.82-.11-5.1-.3c-3.17-.27-5.33-.39-6.45-.39a9.07,9.07,0,0,0-4.67.89,2.5,2.5,0,0,0-1.35,2.08,1.77,1.77,0,0,0,.31,1,1.1,1.1,0,0,0,.92.47,1.13,1.13,0,0,0,.78-.31,1.07,1.07,0,0,0,.3-.74,1.53,1.53,0,0,0-.15-.62,1.61,1.61,0,0,1-.15-.61c0-.39.27-.66.85-.85,1.15-.38,3.43-.38,6.71-.07l-4.51,14.74a12.27,12.27,0,0,1-.74,2,1.71,1.71,0,0,1-.89.74,3.69,3.69,0,0,1-1.54.31h-.39l-.23.81h8.57l.24-.81h-.62a3.32,3.32,0,0,1-1.39-.31,1,1,0,0,1-.58-1,9.82,9.82,0,0,1,.42-1.7l4.44-14.6c2.24.2,3.9.27,5,.27,2.27,0,3.39-.54,3.39-1.66a.68.68,0,0,0-.59-.77h-.18" transform="translate(-89.62 -77.29)"/><path class="cls-3" d="M1325.12,121.29a11.63,11.63,0,0,0-1.39-3.29,8.51,8.51,0,0,0-2.28-2.39,6.2,6.2,0,0,0-6.53,0,7.21,7.21,0,0,0-2.27,2.39,11.09,11.09,0,0,0-1.32,3.32,18.18,18.18,0,0,0-.42,3.75,15.85,15.85,0,0,0,.46,3.82,10.59,10.59,0,0,0,1.39,3.24,7.09,7.09,0,0,0,2.32,2.24,6,6,0,0,0,3.24.85,5.58,5.58,0,0,0,3.2-.92,8.41,8.41,0,0,0,2.28-2.4,11.16,11.16,0,0,0,1.35-3.32,15.12,15.12,0,0,0,.46-3.67,16.53,16.53,0,0,0-.5-3.63m3.2,7.92a10.65,10.65,0,0,1-2.39,3.43,9.93,9.93,0,0,1-3.51,2.24,11.27,11.27,0,0,1-4.25.78,11.64,11.64,0,0,1-4.21-.78,10.2,10.2,0,0,1-3.47-2.2,9.91,9.91,0,0,1-2.36-3.4,10.68,10.68,0,0,1-.85-4.32,11.5,11.5,0,0,1,.89-4.52,10.5,10.5,0,0,1,2.43-3.4,11,11,0,0,1,3.59-2.12,12.52,12.52,0,0,1,4.33-.74,11.15,11.15,0,0,1,4.44.89,10,10,0,0,1,3.35,2.36,10.22,10.22,0,0,1,2.13,3.4,11,11,0,0,1,.73,4,10.27,10.27,0,0,1-.85,4.37" transform="translate(-89.62 -77.29)"/><path class="cls-3" d="M1352,119.74h-1.7v4.1h1.7c1.39,0,1.93-.89,1.93-2.09a1.79,1.79,0,0,0-1.57-2,2.17,2.17,0,0,0-.36,0m7.42,15.49c-3.94,0-5.52-1-5.72-4.44-.15-2.47-.62-3.2-1.89-3.2h-1.51v7.3h-7.83V114.53h13.24c4.44,0,7.37,2.13,7.37,5.21,0,2.7-1.89,4.52-5.13,5.41,3.36.31,4.56,2.08,4.75,5.6.11,2,.38,2.55,1.54,3.05v.73c-.34.35-2,.7-4.82.7" transform="translate(-89.62 -77.29)"/><path class="cls-3" d="M1280.75,167.66c2,0,2.59-.65,2.59-3.28v-13c0-2.67-.58-3.29-2.59-3.29v-.19h10.7v.19c-2,0-2.58.66-2.58,3.29v13c0,2.66.58,3.28,2.58,3.28v.19h-10.7Z" transform="translate(-89.62 -77.29)"/><rect class="cls-3" x="1225.93" y="10.53" width="5.41" height="13.44"/><path class="cls-3" d="M1318.25,80.29a3,3,0,1,1-3,3,3,3,0,0,1,3-3" transform="translate(-89.62 -77.29)"/><path class="cls-3" d="M1277.51,181h2.13c2.31,0,3.86,1.08,3.86,3.67s-1.55,3.74-3.86,3.74h-2.13Zm2.24,6.29c1.7,0,2.47-.73,2.47-2.62s-.81-2.51-2.51-2.51h-1v5.13Z" transform="translate(-89.62 -77.29)"/><rect class="cls-3" x="1198.47" y="103.73" width="1.27" height="7.41"/><path class="cls-3" d="M1293.81,186.7l1-.55a2.13,2.13,0,0,0,2,1.32c.88,0,1.5-.31,1.5-1s-.46-.93-1.7-1.31c-1.43-.43-2.58-.81-2.58-2.24,0-1.28,1-2.09,2.54-2.09a3,3,0,0,1,2.78,1.59l-.92.61a2.08,2.08,0,0,0-1.9-1.08c-.81,0-1.31.31-1.31.85,0,.7.54.93,1.74,1.28,1.39.42,2.55.88,2.55,2.27,0,1.2-1,2.17-2.82,2.17a3,3,0,0,1-2.93-1.85" transform="translate(-89.62 -77.29)"/><polygon class="cls-3" points="1216.28 104.89 1214 104.89 1214 103.73 1219.83 103.73 1219.83 104.89 1217.55 104.89 1217.55 111.15 1216.28 111.15 1216.28 104.89"/><rect class="cls-3" x="1224.15" y="103.73" width="1.27" height="7.41"/><polygon class="cls-3" points="1230.52 103.73 1231.8 103.73 1231.8 110.03 1235.23 110.03 1235.23 111.19 1230.56 111.19 1230.56 103.73 1230.52 103.73"/><polygon class="cls-3" points="1239.29 103.73 1240.52 103.73 1240.52 110.03 1243.96 110.03 1243.96 111.19 1239.29 111.19 1239.29 103.73"/><polygon class="cls-3" points="1248.28 103.73 1253.07 103.73 1253.07 104.89 1249.52 104.89 1249.52 106.75 1252.11 106.75 1252.11 107.86 1249.52 107.86 1249.52 110.03 1253.26 110.03 1253.26 111.19 1248.28 111.19 1248.28 103.73"/><path class="cls-3" d="M1347.44,181h2.66c1.77,0,2.78.7,2.78,2.24a2,2,0,0,1-1.66,2.12l1.73,3.09h-1.35l-1.66-2.93h-1.31v2.93h-1.23V181Zm2.58,3.4c1,0,1.63-.27,1.63-1.16s-.55-1.12-1.63-1.12h-1.35v2.28Z" transform="translate(-89.62 -77.29)"/><path class="cls-3" d="M1356.82,186.7l1-.55a2.12,2.12,0,0,0,2,1.32c.89,0,1.51-.31,1.51-1s-.46-.92-1.7-1.31c-1.43-.43-2.59-.81-2.59-2.24,0-1.27,1.05-2.08,2.55-2.08a3,3,0,0,1,2.78,1.58l-.93.62a2.05,2.05,0,0,0-1.89-1.08c-.81,0-1.31.3-1.31.84,0,.7.54.93,1.74,1.28,1.39.42,2.54.89,2.54,2.28,0,1.2-1,2.16-2.81,2.16a3,3,0,0,1-2.93-1.85" transform="translate(-89.62 -77.29)"/><rect class="cls-3" x="1185.39" y="98.25" width="89.65" height="0.27"/><rect class="cls-3" x="1185.39" y="116.82" width="89.65" height="0.27"/><path class="cls-3" d="M1320.18,148h-3.48L1311,167.7h3.13l1.12-4.29h6.17l1.12,4.29h3.44Zm-4.29,12.9,2.28-8.34h.46l2.09,8.34Z" transform="translate(-89.62 -77.29)"/></g></svg>