<?xml version="1.0" encoding="UTF-8"?>
<svg width="97px" height="40px" viewBox="0 0 97 40" version="1.1" xmlns="http://www.w3.org/2000/svg" xmlns:xlink="http://www.w3.org/1999/xlink">
    <!-- Generator: Sketch 61.2 (89653) - https://sketch.com -->
    <title>logo-text</title>
    <desc>Created with Sketch.</desc>
    <g id="Page-1" stroke="none" stroke-width="1" fill="none" fill-rule="evenodd">
        <g id="Union-2" fill="#FFFFFF" fill-rule="nonzero">
            <path d="M24.426,39.042 L24.426,37.771 L25.589,37.771 L25.589,39.042 L24.426,39.042 Z M15.434,39.042 L15.434,29.033 L17.964,29.033 C21.223,29.033 22.942,30.723 22.942,34.024 C22.942,37.325 21.183,39.042 17.964,39.042 L15.434,39.042 Z M16.394,38.177 L18.112,38.177 C20.588,38.177 21.98,36.919 21.98,34.024 C21.98,31.196 20.573,29.924 18.08,29.924 L16.389,29.924 L16.394,38.177 Z M9.615,39.042 L9.615,29.926 L6.381,29.926 L6.381,29.033 L13.808,29.033 L13.808,29.926 L10.575,29.926 L10.575,39.042 L9.615,39.042 Z M0.938,39.042 L0.938,29.033 L1.897,29.033 L1.897,38.162 L6.797,38.162 L6.797,39.04 L0.938,39.042 Z M52.53,19.716 C52.53,16.752 54.374,14.561 57.214,14.561 C60.054,14.561 61.914,16.752 61.914,19.699 C61.914,22.664 60.068,24.853 57.23,24.853 C54.392,24.853 52.528,22.662 52.528,19.719 L52.53,19.716 Z M53.507,19.699 C53.507,22.223 54.973,23.999 57.213,23.999 C59.453,23.999 60.932,22.221 60.932,19.699 C60.932,17.177 59.465,15.399 57.227,15.399 C54.972,15.4 53.503,17.18 53.503,19.702 L53.507,19.699 Z M29.159,19.699 C29.159,16.548 31.208,14.562 33.729,14.562 C35.1587483,14.5199476 36.5055284,15.2318768 37.276,16.437 L36.567,16.988 C35.9946373,15.9618028 34.8884133,15.3505093 33.715,15.412 C31.586,15.412 30.137,17.177 30.137,19.7 C30.137,22.223 31.508,23.988 33.652,23.988 C34.8424123,24.0418844 35.9777916,23.4836248 36.662,22.508 L36.662,20.537 L33.888,20.537 L33.888,19.75 L37.588,19.75 L37.588,24.714 L36.911,24.714 L36.785,23.451 C35.9838099,24.3859152 34.7981964,24.90188 33.568,24.851 C30.971,24.856 29.158,22.855 29.158,19.702 L29.159,19.699 Z M17.659,23.199 L18.303,22.616 C18.8926876,23.4729382 19.8498311,24.0040678 20.889,24.051 C22.467,24.051 23.302,23.214 23.302,22.112 C23.232787,21.2858983 22.6520776,20.5923288 21.851,20.379 C21.362,20.158 20.037,19.654 19.724,19.512 C18.7481062,19.1307508 18.1001778,18.1966112 18.085,17.149 C18.085,15.541 19.423,14.549 21.158,14.549 C22.3079549,14.5337163 23.3965682,15.0665131 24.09,15.984 L23.507,16.599 C22.9585798,15.841225 22.0926709,15.3771214 21.158,15.34 C19.897,15.34 18.983,15.97 18.983,17.074 C19.0523374,17.8991685 19.6320316,18.592081 20.432,18.806 C20.922,19.027 22.245,19.532 22.56,19.674 C23.5385347,20.0549835 24.191831,20.9871932 24.216,22.037 C24.216,23.629 22.956,24.858 20.858,24.858 C19.5806054,24.8774287 18.3784077,24.25568 17.656,23.202 L17.659,23.199 Z M81.068,19.699 C81.068,16.546 83.117,14.561 85.639,14.561 C87.0991686,14.4946856 88.4742294,15.2489628 89.203,16.516 L88.493,17.067 C87.9328898,16.0104638 86.8180196,15.3671798 85.623,15.411 C83.496,15.411 82.046,17.178 82.046,19.699 C82.046,22.22 83.418,23.987 85.561,23.987 C86.8087332,23.9964512 87.9675206,23.3422294 88.604,22.269 L89.266,22.822 C88.4935471,24.1237459 87.0738872,24.9019725 85.561,24.853 C82.877,24.855 81.064,22.855 81.064,19.702 L81.068,19.699 Z M0.74,24.714 L0.74,14.706 L3.893,14.706 C5.1246945,14.6425768 6.32617505,15.1006639 7.203,15.968 C9.09280635,18.1055286 9.09280635,21.3164714 7.203,23.454 C6.32634597,24.3217016 5.12484383,24.78016 3.893,24.717 L0.74,24.714 Z M1.687,23.923 L3.893,23.923 C4.86389168,23.9564968 5.80524596,23.5861101 6.493,22.9 C8.0283015,21.0489209 8.0283015,18.3670791 6.493,16.516 C5.80541528,15.8295237 4.86403965,15.4587665 3.893,15.492 L1.683,15.492 L1.687,23.923 Z M90.927,24.712 L90.927,14.702 L96.682,14.702 L96.682,15.475 L91.874,15.475 L91.874,18.962 L96.367,18.962 L96.367,19.752 L91.874,19.752 L91.874,23.912 L96.84,23.912 L96.84,24.712 L90.927,24.712 Z M78.068,24.712 L78.068,14.704 L79.017,14.704 L79.017,24.715 L78.068,24.712 Z M71.02,24.712 L71.02,14.702 L76.458,14.702 L76.458,15.475 L71.965,15.475 L71.965,19.195 L76.065,19.195 L76.065,19.982 L71.965,19.982 L71.965,24.712 L71.02,24.712 Z M63.97,24.712 L63.97,14.702 L69.403,14.702 L69.403,15.475 L64.911,15.475 L64.911,19.195 L69.011,19.195 L69.011,19.982 L64.911,19.982 L64.911,24.712 L63.97,24.712 Z M46.67,24.712 L40.838,15.886 L40.838,24.712 L39.972,24.712 L39.972,14.702 L41.103,14.702 L46.667,23.134 L46.667,14.702 L47.534,14.702 L47.534,24.712 L46.67,24.712 Z M26.16,24.712 L26.16,14.704 L27.107,14.704 L27.107,24.715 L26.16,24.712 Z M10.651,24.712 L10.651,14.702 L16.403,14.702 L16.403,15.475 L11.593,15.475 L11.593,18.962 L16.085,18.962 L16.085,19.752 L11.593,19.752 L11.593,23.913 L16.558,23.913 L16.558,24.713 L10.651,24.712 Z M62.416,5.372 C62.416,2.219 64.465,0.233 66.988,0.233 C68.4175337,0.191687461 69.7636618,0.90443287 70.533,2.11 L69.824,2.661 C69.2513011,1.63464225 68.1447098,1.02336011 66.971,1.085 C64.843,1.085 63.394,2.85 63.394,5.373 C63.394,7.896 64.761,9.662 66.903,9.662 C68.0932934,9.71531553 69.2284137,9.1571833 69.913,8.182 L69.913,6.211 L67.138,6.211 L67.138,5.423 L70.838,5.423 L70.838,10.387 L70.161,10.387 L70.034,9.125 C69.2333026,10.0600014 68.0479354,10.5760195 66.818,10.525 C64.226,10.529 62.413,8.527 62.413,5.375 L62.416,5.372 Z M25.593,5.388 C25.593,2.424 27.437,0.233 30.277,0.233 C33.117,0.233 34.977,2.425 34.977,5.372 C34.977,8.336 33.131,10.525 30.294,10.525 C27.457,10.525 25.59,8.338 25.59,5.391 L25.593,5.388 Z M26.571,5.372 C26.571,7.895 28.036,9.672 30.276,9.672 C32.516,9.672 33.996,7.893 33.996,5.372 C33.996,2.851 32.528,1.07199958 30.291,1.07199958 C28.034,1.071 26.568,2.852 26.568,5.375 L26.571,5.372 Z M16.431,5.372 C16.431,2.218 18.48,0.233 21.002,0.233 C22.4621916,0.165450051 23.837559,0.920107168 24.565,2.188 L23.856,2.74 C23.2959525,1.68401091 22.181505,1.04113513 20.987,1.085 C18.859,1.085 17.409,2.851 17.409,5.373 C17.409,7.895 18.778,9.662 20.921,9.662 C22.1687489,9.67253108 23.3277394,9.01797955 23.963,7.944 L24.626,8.497 C23.8535471,9.79874594 22.4338872,10.5769725 20.921,10.528 C18.241,10.527 16.428,8.527 16.428,5.375 L16.431,5.372 Z M49.243,10.385 L49.243,0.377 L50.19,0.377 L50.19,10.388 L49.243,10.385 Z M59.49,10.385 L53.655,1.562 L53.655,10.388 L52.789,10.388 L52.789,0.378 L53.923,0.378 L59.487,8.81 L59.487,0.378 L60.354,0.378 L60.354,10.387 L59.49,10.385 Z M45.819,10.385 L45.535,1.4 L42.147,10.385 L41.357,10.385 L37.97,1.4 L37.7,10.385 L36.787,10.385 L37.179,0.376 L38.52,0.376 L41.782,9.123 L45.061,0.376 L46.401,0.376 L46.795,10.385 L45.819,10.385 Z M9.344,10.385 L9.344,0.378 L15.099,0.378 L15.099,1.15 L10.289,1.15 L10.289,4.632 L14.782,4.632 L14.782,5.422 L10.289,5.422 L10.289,9.584 L15.255,9.584 L15.255,10.384 L9.344,10.385 Z M0.744,10.385 L0.744,0.377 L3.424,0.377 C4.20716262,0.308191512 4.99386996,0.461374175 5.694,0.819 C6.3395574,1.24336735 6.72060003,1.97067491 6.702,2.743 C6.69934489,3.80474751 5.95920561,4.72202125 4.922,4.949 L4.922,4.98 C6.29888714,5.03250492 7.38281746,6.17322734 7.365,7.551 C7.39019289,8.42399 6.97740958,9.25180816 6.265,9.757 C5.48304431,10.2276815 4.57567567,10.4475439 3.665,10.387 L0.744,10.385 Z M1.69,9.598 L3.818,9.598 C4.42179165,9.63679539 5.02393428,9.50032362 5.552,9.205 C6.07741093,8.81678644 6.38742123,8.20227361 6.38742123,7.549 C6.38742123,6.89572639 6.07741093,6.28121356 5.552,5.893 C5.02409953,5.59724598 4.42182811,5.46074502 3.818,5.5 L1.683,5.5 L1.69,9.598 Z M1.69,4.71 L3.297,4.71 C3.86684842,4.75378306 4.43807929,4.64505936 4.952,4.395 C5.46117954,4.06928786 5.76072436,3.49908832 5.74,2.895 C5.78690249,2.28926736 5.48819065,1.70886871 4.968,1.395 C4.43788383,1.19194592 3.86849143,1.11226518 3.303,1.162 L1.683,1.162 L1.69,4.71 Z" id="logo-text"></path>
        </g>
    </g>
</svg>