<?xml version="1.0" encoding="UTF-8"?>
<svg width="133px" height="129px" viewBox="0 0 133 129" version="1.1" xmlns="http://www.w3.org/2000/svg" xmlns:xlink="http://www.w3.org/1999/xlink">
    <!-- Generator: Sketch 61.2 (89653) - https://sketch.com -->
    <title>logo-be</title>
    <desc>Created with Sketch.</desc>
    <g id="Page-1" stroke="none" stroke-width="1" fill="none" fill-rule="evenodd">
        <path d="M73.91,127.886 L88.303,95.598 C87.547,95.651 86.768,95.682 85.959,95.682 C69.674,95.682 61.097,84.392 61.097,72.125 C61.097,58.77 71.197,48.565 85.85,48.565 C94.332,48.565 101.177,52.058 104.941,58.28 L130.926,0 L132.267,0.595 L105.79,59.834 L101.314,69.845 L90.903,93.133 L89.872,95.44 L75.103,128.48 L73.91,127.886 Z M89.472,92.986 L99.789,69.846 L76.409,69.846 C76.409,83 80.995,91.65 89.472,92.984 L89.472,92.986 Z M76.517,68.976 L93.454,68.976 C93.345,63.876 93.019,49.216 85.529,49.216 C79.232,49.216 76.735,60.291 76.517,68.976 Z M19.003,91.991 L7.383,95.573 L7.059,95.465 L7.059,33.041 C7.059,27.611 5.859,24.788 0,24.788 L0,24.137 L21.822,21.963 L21.822,55.838 C25.4458258,51.256407 30.9615202,48.5779024 36.803,48.563 C49.503,48.563 55.912,59.963 55.912,71.688 C55.912,84.824 47.768,95.6790044 31.812,95.6790044 C25.623,95.682 21.931,94.163 19.003,91.991 Z M21.824,56.817 L21.824,88.844 C22.4616467,92.4067199 25.5891497,94.9810649 29.208,94.922 C37.784,94.922 40.39,82.764 40.39,72.668 C40.39,61.703 37.458,52.581 29.967,52.581 C26.49,52.581 23.884,54.428 21.822,56.817 L21.824,56.817 Z" id="logo-be" fill="#FFFFFF" fill-rule="nonzero"></path>
    </g>
</svg>