<svg xmlns="http://www.w3.org/2000/svg" width="202.836" height="128.48" viewBox="0 0 202.836 128.48">
  <path id="Union_2" data-name="Union 2" d="M104.607,153.223,119,120.935c-.757.054-1.535.084-2.345.084-16.284,0-24.862-11.29-24.862-23.558,0-13.355,10.1-23.559,24.753-23.559,8.482,0,15.327,3.492,19.091,9.716l25.984-58.28,1.341.6-26.48,59.237-4.476,10.011L121.6,118.47l-1.032,2.306L105.8,153.818Zm15.562-34.9,10.317-23.141h-23.38C107.106,108.337,111.691,116.987,120.169,118.322ZM107.214,94.314h16.937c-.109-5.1-.435-19.76-7.925-19.76C109.929,74.554,107.432,85.628,107.214,94.314Zm53.91,40.067v-1.272h1.163v1.272Zm-8.991,0V124.371h2.53c3.259,0,4.977,1.69,4.977,4.991s-1.758,5.018-4.977,5.018Zm.959-.865h1.719c2.475,0,3.868-1.259,3.868-4.153,0-2.827-1.406-4.1-3.9-4.1h-1.692Zm-6.779.865v-9.117H143.08v-.893h7.426v.893h-3.233v9.117Zm-8.677,0V124.371h.96v9.13h4.9v.879ZM49.7,117.328,38.08,120.91l-.324-.108V58.378c0-5.43-1.2-8.253-7.058-8.253v-.651L52.518,47.3V81.176A19.162,19.162,0,0,1,67.5,73.9c12.7,0,19.108,11.4,19.108,23.125,0,13.135-8.144,23.992-24.1,23.992C56.32,121.019,52.629,119.5,49.7,117.328Zm2.821-35.175v32.028a7.378,7.378,0,0,0,7.384,6.077c8.576,0,11.183-12.158,11.183-22.255,0-10.964-2.932-20.086-10.423-20.086C57.187,77.918,54.581,79.765,52.518,82.154ZM165.855,115.04c0-3.152,2.049-5.137,4.57-5.137a4.07,4.07,0,0,1,3.547,1.874l-.71.551a3.079,3.079,0,0,0-2.852-1.575c-2.129,0-3.578,1.764-3.578,4.287s1.371,4.287,3.515,4.287a3.485,3.485,0,0,0,3.01-1.48v-1.971h-2.774v-.787h3.7v4.964h-.677l-.126-1.262a4.018,4.018,0,0,1-3.216,1.4C167.668,120.195,165.855,118.193,165.855,115.04Zm-11.5,3.5.645-.583a3.317,3.317,0,0,0,2.585,1.435c1.578,0,2.413-.837,2.413-1.94a1.963,1.963,0,0,0-1.451-1.733c-.489-.222-1.813-.726-2.126-.867a2.576,2.576,0,0,1-1.639-2.364c0-1.608,1.338-2.6,3.072-2.6a3.617,3.617,0,0,1,2.933,1.434l-.583.615a3.053,3.053,0,0,0-2.35-1.259c-1.261,0-2.176.63-2.176,1.734a1.965,1.965,0,0,0,1.45,1.732c.49.221,1.813.726,2.129.868a2.6,2.6,0,0,1,1.655,2.364c0,1.592-1.259,2.822-3.357,2.822A3.811,3.811,0,0,1,154.353,118.54Zm34.872-3.483c0-2.963,1.844-5.155,4.684-5.155s4.7,2.192,4.7,5.138c0,2.964-1.845,5.154-4.683,5.154S189.225,118,189.225,115.057Zm.978-.017c0,2.523,1.465,4.3,3.705,4.3s3.72-1.779,3.72-4.3-1.468-4.3-3.706-4.3C191.668,110.737,190.2,112.518,190.2,115.04Zm27.558,0c0-3.153,2.049-5.138,4.572-5.138a3.9,3.9,0,0,1,3.563,1.955l-.71.551a3.118,3.118,0,0,0-2.87-1.657c-2.126,0-3.577,1.767-3.577,4.289s1.372,4.287,3.515,4.287a3.507,3.507,0,0,0,3.043-1.717l.662.552a4.15,4.15,0,0,1-3.705,2.031C219.574,120.193,217.761,118.193,217.761,115.04Zm-80.327,5.014V110.043h3.153a4.383,4.383,0,0,1,3.309,1.262,5.648,5.648,0,0,1,0,7.486,4.381,4.381,0,0,1-3.309,1.262Zm.947-.79h2.206a3.511,3.511,0,0,0,2.6-1.023,5,5,0,0,0,0-6.384,3.509,3.509,0,0,0-2.6-1.024H138.38Zm89.24.789V110.043h5.754v.773h-4.807V114.3h4.492v.79h-4.492v4.16h4.966v.8Zm-12.859,0V110.042h.948v10.011Zm-7.048,0V110.043h5.438v.773h-4.493v3.72h4.1v.787h-4.1v4.73Zm-7.049,0V110.043H206.1v.773h-4.492v3.72h4.1v.787h-4.1v4.73Zm-17.3,0-5.832-8.827v8.827h-.866V110.043H177.8l5.564,8.432v-8.432h.866v10.009Zm-20.51,0V110.042h.947v10.011Zm-15.508,0V110.043H153.1v.773H148.29V114.3h4.492v.79H148.29v4.161h4.966v.8Zm51.766-19.34c0-3.152,2.049-5.139,4.571-5.139a4.068,4.068,0,0,1,3.546,1.876l-.71.551a3.081,3.081,0,0,0-2.852-1.576c-2.128,0-3.578,1.765-3.578,4.287S201.458,105,203.6,105a3.488,3.488,0,0,0,3.011-1.48v-1.971h-2.775v-.787h3.7v4.963h-.677l-.126-1.262a4.015,4.015,0,0,1-3.215,1.4C200.923,105.867,199.11,103.865,199.11,100.712Zm-36.823.017c0-2.964,1.844-5.155,4.684-5.155s4.7,2.191,4.7,5.139c0,2.964-1.845,5.154-4.682,5.154S162.287,103.677,162.287,100.729Zm.978-.016c0,2.523,1.465,4.3,3.705,4.3s3.72-1.779,3.72-4.3-1.468-4.3-3.705-4.3C164.73,96.409,163.265,98.19,163.265,100.713Zm-10.14,0c0-3.153,2.049-5.139,4.571-5.139a3.9,3.9,0,0,1,3.563,1.955l-.709.551a3.119,3.119,0,0,0-2.87-1.655c-2.128,0-3.579,1.767-3.579,4.288S155.475,105,157.618,105a3.506,3.506,0,0,0,3.043-1.718l.662.553a4.151,4.151,0,0,1-3.705,2.031C154.938,105.865,153.125,103.865,153.125,100.713Zm32.811,5.013V95.715h.947v10.011Zm10.247,0L190.352,96.9v8.827h-.866V95.716h1.134l5.563,8.432V95.716h.866v10.009Zm-13.671,0-.285-8.985-3.387,8.985h-.79l-3.387-8.985-.27,8.985h-.913l.392-10.009h1.341l3.263,8.747,3.279-8.747h1.34l.394,10.009Zm-36.475,0V95.716h5.754v.773h-4.809v3.482h4.492v.79h-4.492v4.161h4.966v.8Zm-8.6,0V95.716h2.679a4.188,4.188,0,0,1,2.27.441,2.238,2.238,0,0,1,1.008,1.924,2.265,2.265,0,0,1-1.78,2.206v.031a2.54,2.54,0,0,1,2.443,2.571,2.613,2.613,0,0,1-1.1,2.206,4.47,4.47,0,0,1-2.6.629Zm.945-.787h2.128a3.134,3.134,0,0,0,1.734-.394,2.059,2.059,0,0,0,0-3.312,3.133,3.133,0,0,0-1.734-.394h-2.128Zm0-4.889h1.608a3.222,3.222,0,0,0,1.655-.315,1.712,1.712,0,0,0,.789-1.5,1.608,1.608,0,0,0-.772-1.5A3.747,3.747,0,0,0,140,96.5h-1.625Z" transform="translate(-30.697 -25.338)" fill="#fff"/>
</svg>
